<svg width="483" height="550" viewBox="0 0 483 550" fill="none" xmlns="http://www.w3.org/2000/svg">
<path d="M480.281 266.707C479.5 285.066 476.766 303.426 472.078 321.785C467.586 340.145 460.75 357.039 451.57 372.469C442.586 387.703 430.965 399.91 416.707 409.09C402.645 418.27 385.75 422.859 366.023 422.859C353.523 422.859 342.488 420.613 332.918 416.121C323.543 411.629 315.73 405.184 309.48 396.785C303.23 388.387 298.836 378.23 296.297 366.316C293.758 354.207 293.074 340.73 294.246 325.887L308.895 158.895H338.484L323.836 325.887C322.469 341.512 323.152 354.109 325.887 363.68C328.621 373.055 332.527 380.281 337.605 385.359C342.684 390.242 348.055 393.562 353.719 395.32C359.578 396.883 364.852 397.664 369.539 397.664C382.625 397.664 394.148 394.344 404.109 387.703C414.07 381.062 422.566 371.785 429.598 359.871C436.629 347.957 442.098 334.09 446.004 318.27C449.91 302.449 452.254 285.262 453.035 266.707C454.402 237.215 453.035 210.066 448.934 185.262C445.027 160.457 438.094 138.387 428.133 119.051C418.172 99.5195 405.184 83.0156 389.168 69.5391C373.152 56.0625 353.914 45.8086 331.453 38.7773C309.188 31.7461 283.504 28.2305 254.402 28.2305C229.207 28.2305 205.574 32.0391 183.504 39.6562C161.629 47.0781 141.707 58.0156 123.738 72.4688C105.77 86.7266 90.1445 104.012 76.8633 124.324C63.7773 144.637 53.3281 167.684 45.5156 193.465C37.8984 219.051 33.4062 246.883 32.0391 276.961C30.6719 306.062 32.4297 333.211 37.3125 358.406C42.1953 383.602 50.0078 406.355 60.75 426.668C71.4922 446.98 85.0664 464.363 101.473 478.816C117.879 493.27 136.922 504.305 158.602 511.922C180.477 519.539 204.891 523.348 231.844 523.348C249.031 523.348 266.414 521.199 283.992 516.902C301.766 512.801 316.609 507.234 328.523 500.203L337.312 523.641C324.422 532.234 307.82 538.68 287.508 542.977C267.195 547.469 248.25 549.715 230.672 549.715C200.984 549.715 173.836 545.613 149.227 537.41C124.812 529.402 103.133 517.586 84.1875 501.961C65.4375 486.531 49.8125 467.684 37.3125 445.418C24.8125 423.348 15.6328 398.152 9.77344 369.832C3.91406 341.512 1.66797 310.555 3.03516 276.961C4.40234 244.148 9.28516 213.582 17.6836 185.262C26.2773 156.941 37.8984 131.551 52.5469 109.09C67.1953 86.4336 84.6758 67 104.988 50.7891C125.301 34.5781 148.055 22.1758 173.25 13.582C198.641 4.98828 226.082 0.691406 255.574 0.691406C286.824 0.691406 314.754 4.69531 339.363 12.7031C364.168 20.7109 385.652 32.332 403.816 47.5664C422.176 62.6055 437.215 80.9648 448.934 102.645C460.652 124.324 469.148 148.934 474.422 176.473C479.695 204.012 481.648 234.09 480.281 266.707ZM163.289 291.902C161.727 306.941 161.629 320.711 162.996 333.211C164.559 345.711 167.488 356.551 171.785 365.73C176.082 374.715 181.844 381.746 189.07 386.824C196.297 391.707 204.891 394.148 214.852 394.148C222.273 394.148 229.988 392.781 237.996 390.047C246.004 387.117 253.719 382.332 261.141 375.691C268.758 369.051 275.887 359.969 282.527 348.445C289.168 336.727 294.832 321.98 299.52 304.207L313.875 322.078C309.188 338.68 303.23 353.23 296.004 365.73C288.973 378.23 280.867 388.777 271.688 397.371C262.703 405.77 252.84 412.117 242.098 416.414C231.551 420.711 220.32 422.859 208.406 422.859C194.734 422.859 182.723 419.734 172.371 413.484C162.02 407.234 153.523 398.348 146.883 386.824C140.438 375.301 135.945 361.531 133.406 345.516C130.867 329.5 130.477 311.629 132.234 291.902C133.992 271.785 137.508 253.23 142.781 236.238C148.25 219.051 154.891 203.816 162.703 190.535C170.711 177.059 179.793 165.633 189.949 156.258C200.301 146.883 211.336 139.754 223.055 134.871C234.773 129.793 246.98 127.254 259.676 127.254C279.402 127.254 294.93 130.477 306.258 136.922C317.586 143.172 328.328 150.496 338.484 158.895L318.562 178.23C312.703 171.59 304.988 165.926 295.418 161.238C286.043 156.551 274.812 154.207 261.727 154.207C249.812 154.207 238.484 157.039 227.742 162.703C217 168.172 207.137 176.668 198.152 188.191C189.363 199.52 181.941 213.777 175.887 230.965C169.832 248.152 165.633 268.465 163.289 291.902Z" fill="#FF489B" fill-opacity="0.25"/>
</svg>
