<svg width="125" height="125" viewBox="0 0 125 125" fill="none" xmlns="http://www.w3.org/2000/svg">
<path d="M105.681 81.4666C113.702 55.2887 97.396 27.5242 71.13 20.2967C47.7726 13.8624 19.6555 30.3448 15.8655 54.9361C12.428 77.5884 33.5818 102.621 57.38 97.3321C78.1813 92.7487 88.1412 68.6862 74.3031 51.6749C66.3703 41.9794 51.3863 38.9826 43.7181 50.8817C37.2838 60.8416 45.6572 76.4426 57.9969 73.4458C64.0787 71.9474 61.6989 62.5163 55.529 63.9265C52.2678 64.7198 50.7694 59.5195 51.5626 56.9634C52.7966 53.2615 57.4681 51.7631 60.8175 52.997C66.9873 55.2887 71.4825 62.957 71.3944 69.3913C71.3063 81.8192 57.2918 90.3689 45.8335 87.3721C29.1748 82.8769 20.0081 61.8993 28.9103 47.0034C37.3719 32.9008 54.1187 24.7919 70.1604 29.904C90.6092 36.4265 102.508 58.1974 96.2502 78.7343C94.3993 84.9923 103.83 87.5484 105.681 81.4666Z" fill="#283F68"/>
</svg>
