<svg width="125" height="125" viewBox="0 0 125 125" fill="none" xmlns="http://www.w3.org/2000/svg">
<g clip-path="url(#clip0_2274_121)" filter="url(#filter0_d_2274_121)">
<path d="M105.681 81.4666C113.702 55.2887 97.396 27.5242 71.1299 20.2967C47.7725 13.8624 19.6555 30.3448 15.8654 54.9361C12.4279 77.5884 33.5818 102.621 57.3799 97.3321C78.1812 92.7487 88.1412 68.6862 74.303 51.6749C66.3703 41.9794 51.3863 38.9826 43.718 50.8817C37.2837 60.8416 45.6571 76.4426 57.9969 73.4458C64.0786 71.9474 61.6988 62.5163 55.5289 63.9265C52.2677 64.7198 50.7693 59.5195 51.5626 56.9634C52.7966 53.2615 57.468 51.7631 60.8174 52.997C66.9873 55.2887 71.4825 62.957 71.3944 69.3913C71.3062 81.8192 57.2918 90.3689 45.8334 87.3721C29.1747 82.8769 20.008 61.8993 28.9103 47.0034C37.3719 32.9008 54.1187 24.7919 70.1604 29.904C90.6091 36.4265 102.508 58.1974 96.2502 78.7343C94.3992 84.9923 103.83 87.5484 105.681 81.4666Z" fill="#283F68"/>
</g>
<defs>
<filter id="filter0_d_2274_121" x="-4" y="0.112305" width="132.015" height="132.015" filterUnits="userSpaceOnUse" color-interpolation-filters="sRGB">
<feFlood flood-opacity="0" result="BackgroundImageFix"/>
<feColorMatrix in="SourceAlpha" type="matrix" values="0 0 0 0 0 0 0 0 0 0 0 0 0 0 0 0 0 0 127 0" result="hardAlpha"/>
<feOffset dy="4"/>
<feGaussianBlur stdDeviation="2"/>
<feComposite in2="hardAlpha" operator="out"/>
<feColorMatrix type="matrix" values="0 0 0 0 0 0 0 0 0 0 0 0 0 0 0 0 0 0 0.25 0"/>
<feBlend mode="normal" in2="BackgroundImageFix" result="effect1_dropShadow_2274_121"/>
<feBlend mode="normal" in="SourceGraphic" in2="effect1_dropShadow_2274_121" result="shape"/>
</filter>
<clipPath id="clip0_2274_121">
<rect width="90.3716" height="85.0116" fill="white" transform="translate(63.9024 124.127) rotate(-135)"/>
</clipPath>
</defs>
</svg>
