<svg width="102" height="90" viewBox="0 0 102 90" fill="none" xmlns="http://www.w3.org/2000/svg">
<path d="M27.1063 10.9887C23.9129 8.28123 28.6336 5.64323 31.0633 5.43497C33.9096 5.2267 36.5476 6.75397 37.8666 9.25312C40.2963 14.1126 36.4087 18.5555 32.5906 21.1935C23.6352 27.372 12.3196 30.9819 1.97587 34.1059C-0.0373378 34.7306 -0.939811 38.0629 1.35108 39.1042C14.4717 45.005 27.5228 50.9752 40.6434 56.876C43.8368 58.3338 46.6136 53.6132 43.4202 52.1553C30.2997 46.2545 17.2485 40.2843 4.12792 34.3835C3.91966 36.0496 3.7114 37.7158 3.50314 39.3819C12.8056 36.605 21.8997 33.0645 30.5773 28.691C36.8252 25.5671 43.9062 20.4993 44.1144 12.7936C44.3227 5.2267 37.5889 -0.812936 30.1608 0.0895378C23.427 0.92259 16.7626 9.25313 23.3576 14.8068C25.9261 17.0977 29.8137 13.2101 27.1063 10.9887Z" fill="#FF489B"/>
<path d="M10.7227 40.0067C31.9656 39.3819 54.5274 36.4663 75.1455 43.2001C84.6562 46.324 94.6528 52.6414 96.3189 63.3322C97.985 73.8148 89.1685 83.9503 78.7554 84.5751C75.2843 84.7833 75.2149 90.2676 78.7554 89.9899C87.433 89.4345 95.4858 84.1585 99.3734 76.3834C103.4 68.3999 102.428 58.9587 97.2214 51.7389C85.8363 35.772 62.5803 33.7588 44.6002 33.4812C33.2846 33.3423 21.9689 34.1059 10.7227 34.453C7.18226 34.6613 7.18226 40.1456 10.7227 40.0067Z" fill="#FF489B"/>
</svg>
