<svg width="27" height="64" viewBox="0 0 27 64" fill="none" xmlns="http://www.w3.org/2000/svg">
<path d="M5.17379 51.2341C3.89907 52.7376 2.65703 50.515 2.55898 49.371C2.46092 48.0309 3.18 46.7889 4.35666 46.1679C6.64463 45.0239 8.73647 46.8542 9.97851 48.6519C12.8875 52.8683 14.5871 58.196 16.058 63.0661C16.3521 64.014 17.921 64.4389 18.4113 63.3603C21.1895 57.1828 24.0005 51.038 26.7787 44.8604C27.4651 43.3569 25.2425 42.0495 24.5561 43.553C21.7779 49.7305 18.9669 55.8754 16.1887 62.0529C16.9731 62.1509 17.7576 62.249 18.542 62.347C17.2346 57.9672 15.5677 53.6855 13.5085 49.5998C12.0377 46.6581 9.65167 43.3242 6.02361 43.2262C2.46092 43.1281 -0.382694 46.2986 0.0422138 49.7959C0.434436 52.9664 4.35666 56.1042 6.97148 52.9991C8.01741 51.7897 6.21972 49.9593 5.17379 51.2341Z" fill="#FF489B"/>
<path d="M15.9926 1.22569C16.5483 19.9543 16.6463 38.7156 16.3195 57.4442C16.2868 59.1112 18.8689 59.1112 18.8689 57.4442C19.1958 38.7156 19.065 19.9543 18.5421 1.22569C18.5094 -0.408565 15.9273 -0.408565 15.9926 1.22569Z" fill="#FF489B"/>
</svg>
