<svg width="38" height="91" viewBox="0 0 38 91" fill="none" xmlns="http://www.w3.org/2000/svg">
<path d="M7.30626 72.352C5.50611 74.4753 3.75212 71.3366 3.61365 69.7211C3.47518 67.8286 4.49065 66.0746 6.15232 65.1976C9.38335 63.5821 12.3374 66.1669 14.0914 68.7056C18.1994 74.6599 20.5996 82.1836 22.6767 89.0611C23.0922 90.3997 25.3077 90.9997 26.0001 89.4765C29.9235 80.7527 33.893 72.0751 37.8164 63.3513C38.7858 61.2281 35.647 59.3818 34.6777 61.505C30.7543 70.2288 26.7848 78.9064 22.8614 87.6302C23.9691 87.7687 25.0769 87.9072 26.1847 88.0456C24.3384 81.8605 21.9844 75.8139 19.0765 70.0442C16.9994 65.89 13.6299 61.1819 8.50636 61.0434C3.47518 60.905 -0.540539 65.3823 0.0595127 70.3211C0.613403 74.7984 6.15232 79.2295 9.84493 74.8446C11.322 73.1367 8.7833 70.5519 7.30626 72.352Z" fill="#FF489B"/>
<path d="M22.5844 1.73091C23.3691 28.1792 23.5076 54.6737 23.046 81.122C22.9999 83.476 26.6463 83.476 26.6463 81.122C27.1079 54.6737 26.9232 28.1792 26.1847 1.73091C26.1386 -0.57697 22.4921 -0.57697 22.5844 1.73091Z" fill="#FF489B"/>
</svg>
