<svg width="148" height="131" viewBox="0 0 148 131" fill="none" xmlns="http://www.w3.org/2000/svg">
<path d="M40 16.6C35.4 12.7 42.2 8.89999 45.7 8.59999C49.8 8.29999 53.6 10.5 55.5 14.1C59 21.1 53.4 27.5 47.9 31.3C35 40.2 18.7 45.4 3.80001 49.9C0.900012 50.8 -0.399988 55.6 2.90001 57.1C21.8 65.6 40.6 74.2 59.5 82.7C64.1 84.8 68.1 78 63.5 75.9C44.6 67.4 25.8 58.8 6.90001 50.3C6.60001 52.7 6.30001 55.1 6.00001 57.5C19.4 53.5 32.5 48.4 45 42.1C54 37.6 64.2 30.3 64.5 19.2C64.8 8.29998 55.1 -0.400026 44.4 0.899974C34.7 2.09997 25.1 14.1 34.6 22.1C38.3 25.4 43.9 19.8 40 16.6Z" fill="#FF489B"/>
<path d="M16.4 58.4C47 57.5 79.5 53.3 109.2 63C122.9 67.5 137.3 76.6 139.7 92C142.1 107.1 129.4 121.7 114.4 122.6C109.4 122.9 109.3 130.8 114.4 130.4C126.9 129.6 138.5 122 144.1 110.8C149.9 99.3 148.5 85.7 141 75.3C124.6 52.3 91.1 49.4 65.2 49C48.9 48.8 32.6 49.9 16.4 50.4C11.3 50.7 11.3 58.6 16.4 58.4Z" fill="#FF489B"/>
</svg>
