<svg width="38" height="91" viewBox="0 0 38 91" fill="none" xmlns="http://www.w3.org/2000/svg">
<path d="M30.6937 18.0227C32.4939 15.8995 34.2479 19.0382 34.3863 20.6537C34.5248 22.5462 33.5094 24.3002 31.8477 25.1772C28.6166 26.7927 25.6626 24.2079 23.9086 21.6692C19.8006 15.7149 17.4004 8.19117 15.3233 1.31369C14.9078 -0.024885 12.6923 -0.624939 11.9999 0.898262C8.07651 9.62205 4.10695 18.2997 0.183557 27.0235C-0.785753 29.1467 2.35297 30.993 3.32228 28.8698C7.24568 20.146 11.2152 11.4684 15.1386 2.74457C14.0309 2.60609 12.9231 2.46762 11.8153 2.32915C13.6616 8.51427 16.0156 14.5609 18.9235 20.3306C21.0006 24.4848 24.3701 29.1929 29.4936 29.3314C34.5248 29.4698 38.5405 24.9925 37.9405 20.0537C37.3866 15.5764 31.8477 11.1453 28.1551 15.5302C26.678 17.2381 29.2167 19.8229 30.6937 18.0227Z" fill="#FF489B"/>
<path d="M15.4156 88.6438C14.6309 62.1955 14.4924 35.7011 14.954 9.25276C15.0001 6.89872 11.3537 6.89872 11.3537 9.25276C10.8921 35.7011 11.0768 62.1955 11.8153 88.6438C11.8614 90.9517 15.5079 90.9517 15.4156 88.6438Z" fill="#FF489B"/>
</svg>
