<svg width="227" height="228" viewBox="0 0 227 228" fill="none" xmlns="http://www.w3.org/2000/svg">
<g clip-path="url(#clip0_2281_143)">
<path d="M80.9156 134.374C105.705 136.707 127.22 149.926 147.332 163.613C156.374 169.678 166.041 175.744 173.368 183.831C179.916 191.296 185.061 205.293 175.863 212.914C166.041 221.157 152.944 211.825 147.332 203.271C141.563 194.095 138.601 182.587 137.042 171.855C133.456 147.438 138.445 122.398 150.45 100.936C154.348 94.0928 143.746 87.8718 139.848 94.7149C127.999 115.866 122.231 140.128 123.946 164.39C125.349 184.764 131.118 211.514 149.982 223.179C167.6 234.065 191.142 225.356 192.701 203.583C194.26 180.565 173.368 166.879 156.686 155.37C133.768 139.506 109.446 124.887 80.9156 122.243C73.1203 121.465 73.1203 133.752 80.9156 134.374Z" fill="#283F68"/>
<path d="M134.392 144.794C136.418 120.066 149.203 98.292 162.767 78.0737C168.847 69.0532 174.615 59.0996 182.723 51.7899C190.05 45.2579 204.082 39.8145 211.877 48.835C220.296 58.4775 211.253 71.6972 202.679 77.4516C193.48 83.5171 182.099 86.4721 171.341 88.1829C147.02 92.071 121.763 87.5608 100.092 75.7408C93.2322 72.0082 86.9959 82.5839 93.8558 86.3166C115.215 97.8254 139.536 103.269 163.858 101.247C184.126 99.5362 211.098 93.4707 222.479 74.6522C233.236 56.9223 224.194 33.5935 202.367 32.1938C179.293 30.794 165.729 51.7899 154.348 68.5867C138.757 91.7599 124.414 116.333 122.075 144.794C121.607 152.57 133.768 152.57 134.392 144.794Z" fill="#283F68"/>
<path d="M144.214 91.1378C119.424 89.4271 97.4416 76.985 77.0179 63.9209C67.8194 58.011 57.8414 52.4121 50.5138 44.3247C43.6539 37.1706 38.0412 23.3288 46.772 15.2415C56.2823 6.53211 69.8462 15.397 75.4588 23.9509C81.5392 32.9714 84.6573 44.3247 86.6841 55.056C91.0495 79.3179 86.6841 104.513 75.3029 126.287C71.7171 133.285 82.1628 139.351 85.9046 132.508C97.1298 111.045 102.275 86.6276 99.9361 62.5212C97.9094 42.3029 91.5172 15.5526 72.4966 4.51028C54.5673 -6.06544 31.3373 3.11055 30.2459 24.8841C29.1546 47.9018 50.3579 61.277 67.3517 72.3193C90.8936 87.5608 115.527 101.558 144.058 103.424C152.009 103.891 152.009 91.6044 144.214 91.1378Z" fill="#283F68"/>
<path d="M90.114 82.1173C88.8668 107.001 76.7061 128.93 63.7658 149.615C57.9973 158.791 52.5405 168.9 44.5893 176.366C37.5735 183.053 24.0096 188.963 15.7466 180.72C6.5481 171.544 15.2789 157.547 23.6978 151.637C32.7404 145.416 43.9657 142.15 54.7232 140.128C78.8888 135.462 104.457 139.351 126.284 150.393C133.3 153.97 139.536 143.394 132.521 139.817C110.85 128.93 86.3723 123.954 62.2068 126.753C41.9389 129.086 15.2789 135.618 4.36541 154.903C-5.92443 172.789 3.58588 196.117 25.4128 196.895C48.6429 197.673 61.5831 176.366 72.4966 159.258C87.4636 135.618 101.183 110.734 102.742 82.2729C102.898 74.3411 90.5818 74.3411 90.114 82.1173Z" fill="#283F68"/>
</g>
<defs>
<clipPath id="clip0_2281_143">
<rect width="227" height="228" fill="white"/>
</clipPath>
</defs>
</svg>
