<svg width="227" height="228" viewBox="0 0 227 228" fill="none" xmlns="http://www.w3.org/2000/svg">
<path d="M80.9014 134.259C105.691 136.592 127.206 149.811 147.318 163.498C156.36 169.563 166.026 175.629 173.354 183.716C179.902 191.181 185.047 205.178 175.849 212.799C166.026 221.042 152.93 211.71 147.318 203.156C141.549 193.981 138.587 182.472 137.028 171.74C133.442 147.323 138.431 122.283 150.436 100.821C154.333 93.9778 143.732 87.7568 139.834 94.5999C127.985 115.751 122.217 140.013 123.932 164.275C125.335 184.649 131.103 211.399 149.968 223.064C167.585 233.951 191.127 225.241 192.686 203.468C194.246 180.45 173.354 166.764 156.672 155.255C133.754 139.391 109.432 124.772 80.9014 122.128C73.1061 121.35 73.1061 133.637 80.9014 134.259Z" fill="#283F68"/>
<path d="M134.377 144.679C136.404 119.951 149.189 98.177 162.752 77.9587C168.833 68.9383 174.601 58.9846 182.708 51.675C190.036 45.1429 204.068 39.6995 211.863 48.72C220.282 58.3625 211.239 71.5822 202.664 77.3366C193.466 83.4021 182.085 86.3571 171.327 88.0679C147.006 91.956 121.749 87.4458 100.078 75.6258C93.218 71.8932 86.9818 82.469 93.8417 86.2016C115.201 97.7104 139.522 103.154 163.844 101.132C184.112 99.4212 211.083 93.3557 222.465 74.5372C233.222 56.8073 224.18 33.4785 202.353 32.0788C179.278 30.679 165.715 51.675 154.333 68.4717C138.743 91.6449 124.399 116.218 122.061 144.679C121.593 152.455 133.754 152.455 134.377 144.679Z" fill="#283F68"/>
<path d="M144.199 91.0228C119.41 89.3121 97.4275 76.87 77.0037 63.8059C67.8052 57.896 57.8272 52.2971 50.4996 44.2097C43.6397 37.0556 38.0271 23.2138 46.7578 15.1265C56.2681 6.41712 69.832 15.2821 75.4447 23.8359C81.525 32.8564 84.6431 44.2098 86.6699 54.941C91.0353 79.2029 86.6699 104.398 75.2887 126.172C71.7029 133.17 82.1486 139.236 85.8904 132.393C97.1157 110.93 102.261 86.5126 99.922 62.4062C97.8952 42.1879 91.503 15.4376 72.4824 4.39529C54.5532 -6.18043 31.3231 2.99556 30.2317 24.7691C29.1404 47.7868 50.3437 61.162 67.3375 72.2043C90.8794 87.4458 115.513 101.443 144.044 103.309C151.995 103.776 151.995 91.4894 144.199 91.0228Z" fill="#283F68"/>
<path d="M90.0999 82.0024C88.8526 106.886 76.6919 128.815 63.7517 149.5C57.9831 158.676 52.5264 168.785 44.5752 176.251C37.5594 182.938 23.9955 188.848 15.7324 180.605C6.53394 171.429 15.2647 157.432 23.6837 151.522C32.7262 145.301 43.9515 142.035 54.7091 140.013C78.8746 135.348 104.443 139.236 126.27 150.278C133.286 153.855 139.522 143.279 132.506 139.702C110.835 128.815 86.3581 123.839 62.1926 126.638C41.9247 128.971 15.2647 135.503 4.35125 154.788C-5.93859 172.674 3.57172 196.002 25.3986 196.78C48.6287 197.558 61.569 176.251 72.4824 159.143C87.4495 135.503 101.169 110.619 102.728 82.1579C102.884 74.2261 90.5676 74.2261 90.0999 82.0024Z" fill="#283F68"/>
</svg>
