<svg width="47" height="47" viewBox="0 0 47 47" fill="none" xmlns="http://www.w3.org/2000/svg">
<path d="M20.0699 30.5744C20.6952 30.4494 21.3204 30.1993 21.7581 29.8242C22.1958 29.5115 22.5709 29.1364 22.821 28.6362C23.2587 27.9484 23.5088 27.1356 23.5088 26.1977C23.5088 25.3224 23.3212 24.5721 22.9461 24.0094C22.5709 23.3841 21.9457 22.9464 21.1954 22.6963C21.6956 22.4463 22.0707 22.1336 22.3208 21.821C22.7585 21.2583 23.0086 20.508 23.0086 19.5701C23.0086 18.6948 22.7585 17.882 22.3208 17.2567C21.5705 16.1938 20.2575 15.6936 18.3818 15.6311H11.1289V30.762H17.9441C18.7569 30.762 19.4447 30.6995 20.0699 30.5744ZM14.1926 18.2571H17.5064C18.2567 18.2571 18.8194 18.3196 19.3196 18.5072C19.8823 18.7573 20.1324 19.195 20.1324 19.8827C20.1324 20.508 19.9449 20.9457 19.5072 21.1958C19.0695 21.4459 18.5693 21.5709 17.8816 21.5709H14.1926V18.2571ZM14.1926 28.136V24.1344H17.8816C18.5068 24.1344 19.007 24.1969 19.3821 24.3845C20.0074 24.6971 20.32 25.1973 20.32 26.0102C20.32 26.948 20.0074 27.5733 19.3196 27.8859C18.9445 28.0735 18.4443 28.136 17.819 28.136H14.1926Z" fill="#FF489B"/>
<path d="M26.1345 29.7616C27.26 30.6995 28.573 31.1372 30.0736 31.1372C31.8868 31.1372 33.2623 30.5745 34.2627 29.5115C34.888 28.8238 35.2631 28.136 35.3256 27.5108H32.3245C32.1369 27.8234 31.9493 28.0735 31.6992 28.2611C31.2615 28.5737 30.7613 28.7612 30.0736 28.7612C29.4483 28.7612 28.8856 28.6362 28.4479 28.3236C27.6976 27.8859 27.3225 27.0731 27.26 25.9476H35.3882C35.3882 25.0098 35.3882 24.2595 35.2631 23.7593C35.1381 22.8839 34.8254 22.1336 34.3878 21.4459C33.8876 20.6956 33.2623 20.1329 32.4495 19.8202C31.6992 19.4451 30.8239 19.32 29.8235 19.32C28.1978 19.32 26.8848 19.8202 25.8219 20.8832C24.8215 21.8835 24.2588 23.3841 24.2588 25.3224C24.3838 27.3232 24.9466 28.8238 26.1345 29.7616ZM28.1978 22.3212C28.6355 21.8835 29.1982 21.696 29.9485 21.696C30.6363 21.696 31.199 21.8835 31.6992 22.3212C32.1369 22.6964 32.4495 23.3216 32.4495 24.0719H27.385C27.5101 23.3216 27.7602 22.7589 28.1978 22.3212Z" fill="#FF489B"/>
<path d="M33.0133 16.5064H26.4482V18.007H33.0133V16.5064Z" fill="#FF489B"/>
<path d="M23.4467 0C10.5041 0 0 10.5041 0 23.4467C0 36.3893 10.5041 46.8934 23.4467 46.8934C36.3893 46.8934 46.8934 36.3893 46.8934 23.4467C46.8309 10.5041 36.3268 0 23.4467 0ZM23.4467 43.8297C12.1923 43.8297 3.00118 34.6386 3.00118 23.3842C3.00118 12.1298 12.1923 2.93865 23.4467 2.93865C34.7011 2.93865 43.8922 12.1298 43.8922 23.3842C43.8297 34.7011 34.7011 43.8297 23.4467 43.8297Z" fill="#FF489B"/>
</svg>
