<svg width="42" height="42" viewBox="0 0 42 42" fill="none" xmlns="http://www.w3.org/2000/svg">
<path d="M17.9352 27.3695C18.4939 27.2578 19.0527 27.0343 19.4438 26.699C19.8349 26.4197 20.1701 26.0844 20.3936 25.6375C20.7847 25.0229 21.0082 24.2965 21.0082 23.4584C21.0082 22.6762 20.8406 22.0057 20.5054 21.5029C20.1701 20.9441 19.6114 20.553 18.9409 20.3295C19.3879 20.106 19.7232 19.8267 19.9466 19.5473C20.3378 19.0444 20.5612 18.374 20.5612 17.5359C20.5612 16.7536 20.3378 16.0273 19.9466 15.4686C19.2762 14.5187 18.1028 14.0717 16.4266 14.0159H9.94537V27.5371H16.0355C16.7619 27.5371 17.3765 27.4813 17.9352 27.3695ZM12.6832 16.3625H15.6444C16.3149 16.3625 16.8178 16.4184 17.2647 16.586C17.7676 16.8095 17.9911 17.2006 17.9911 17.8152C17.9911 18.374 17.8235 18.7651 17.4324 18.9886C17.0412 19.2121 16.5943 19.3238 15.9797 19.3238H12.6832V16.3625ZM12.6832 25.1905V21.6146H15.9797C16.5384 21.6146 16.9854 21.6705 17.3206 21.8381C17.8793 22.1175 18.1587 22.5644 18.1587 23.2908C18.1587 24.1289 17.8793 24.6876 17.2647 24.967C16.9295 25.1346 16.4825 25.1905 15.9238 25.1905H12.6832Z" fill="white"/>
<path d="M23.3548 26.6432C24.3606 27.4813 25.5339 27.8724 26.8748 27.8724C28.4952 27.8724 29.7244 27.3695 30.6183 26.4197C31.1771 25.8051 31.5123 25.1905 31.5682 24.6317H28.8863C28.7187 24.9111 28.551 25.1346 28.3275 25.3022C27.9364 25.5816 27.4894 25.7492 26.8748 25.7492C26.3161 25.7492 25.8133 25.6375 25.4221 25.3581C24.7517 24.967 24.4164 24.2406 24.3606 23.2349H31.624C31.624 22.3968 31.624 21.7263 31.5123 21.2794C31.4006 20.4971 31.1212 19.8267 30.7301 19.2121C30.2831 18.5416 29.7244 18.0387 28.998 17.7594C28.3275 17.4241 27.5453 17.3124 26.6513 17.3124C25.1987 17.3124 24.0253 17.7594 23.0755 18.7092C22.1815 19.6032 21.6786 20.9441 21.6786 22.6762C21.7904 24.4641 22.2933 25.8051 23.3548 26.6432ZM25.1986 19.9943C25.5898 19.6032 26.0926 19.4356 26.7631 19.4356C27.3777 19.4356 27.8806 19.6032 28.3275 19.9943C28.7187 20.3295 28.998 20.8883 28.998 21.5587H24.4723C24.584 20.8883 24.8075 20.3854 25.1986 19.9943Z" fill="white"/>
<path d="M29.5009 14.7981H23.6343V16.139H29.5009V14.7981Z" fill="white"/>
<path d="M20.9524 0.0476074C9.38667 0.0476074 0 9.43427 0 21C0 32.5657 9.38667 41.9524 20.9524 41.9524C32.5181 41.9524 41.9048 32.5657 41.9048 21C41.8489 9.43427 32.4622 0.0476074 20.9524 0.0476074ZM20.9524 39.2146C10.8952 39.2146 2.68191 31.0013 2.68191 20.9441C2.68191 10.887 10.8952 2.67364 20.9524 2.67364C31.0095 2.67364 39.2229 10.887 39.2229 20.9441C39.167 31.0571 31.0095 39.2146 20.9524 39.2146Z" fill="white"/>
</svg>
