<svg width="47" height="47" viewBox="0 0 47 47" fill="none" xmlns="http://www.w3.org/2000/svg">
<g clip-path="url(#clip0_2530_420)">
<path d="M13.0523 17.5073H17.5703V31.9399H13.0523V17.5073ZM15.3113 10.291C16.7546 10.291 17.8841 11.4833 17.8841 12.8638C17.8841 14.3071 16.6918 15.4993 15.3113 15.4993C13.868 15.4993 12.6758 14.3071 12.6758 12.8638C12.6758 11.4833 13.868 10.291 15.3113 10.291ZM20.3313 31.9399H24.8493V24.7864C24.8493 22.9039 25.2258 21.0841 27.5476 21.0841C29.8694 21.0841 29.8694 23.2176 29.8694 24.9119V31.9399H34.3874V24.0334C34.3874 20.1428 33.5716 17.1308 28.9909 17.1308C26.7946 17.1308 25.3513 18.3231 24.7238 19.4526H24.6611V17.5073H20.3313V31.9399Z" fill="#FF489B"/>
<path d="M23.5314 0C10.5421 0 0 10.5421 0 23.5314C0 36.5207 10.5421 47.0628 23.5314 47.0628C36.5207 47.0628 47.0628 36.5207 47.0628 23.5314C47 10.5421 36.4579 0 23.5314 0ZM23.5314 43.988C12.2363 43.988 3.01202 34.7637 3.01202 23.4686C3.01202 12.1736 12.2363 2.94927 23.5314 2.94927C34.8264 2.94927 44.0507 12.1736 44.0507 23.4686C43.988 34.8264 34.8264 43.988 23.5314 43.988Z" fill="#FF489B"/>
</g>
<defs>
<clipPath id="clip0_2530_420">
<rect width="47" height="47" fill="white"/>
</clipPath>
</defs>
</svg>
