<svg width="42" height="42" viewBox="0 0 42 42" fill="none" xmlns="http://www.w3.org/2000/svg">
<path d="M11.6635 15.6449H15.7009V28.5421H11.6635V15.6449ZM13.6822 9.19629C14.9719 9.19629 15.9813 10.2617 15.9813 11.4954C15.9813 12.7851 14.9159 13.8505 13.6822 13.8505C12.3925 13.8505 11.3271 12.7851 11.3271 11.4954C11.3271 10.2617 12.3925 9.19629 13.6822 9.19629ZM18.1682 28.5421H22.2056V22.1496C22.2056 20.4673 22.542 18.8411 24.6168 18.8411C26.6916 18.8411 26.6916 20.7477 26.6916 22.2617V28.5421H30.729V21.4767C30.729 18 30 15.3084 25.9065 15.3084C23.9439 15.3084 22.6542 16.3739 22.0934 17.3832H22.0374V15.6449H18.1682V28.5421Z" fill="white"/>
<path d="M21.028 0C9.42056 0 0 9.42056 0 21.028C0 32.6355 9.42056 42.0561 21.028 42.0561C32.6355 42.0561 42.0561 32.6355 42.0561 21.028C42 9.42056 32.5794 0 21.028 0ZM21.028 39.3084C10.9346 39.3084 2.69159 31.0654 2.69159 20.972C2.69159 10.8785 10.9346 2.63551 21.028 2.63551C31.1215 2.63551 39.3645 10.8785 39.3645 20.972C39.3084 31.1215 31.1215 39.3084 21.028 39.3084Z" fill="white"/>
</svg>
