<svg id="Capa_1" data-name="Capa 1" xmlns="http://www.w3.org/2000/svg" viewBox="0 0 57.65 59.86"><defs><style>.cls-1{fill:#283f68;}</style></defs><title>espiral</title><path class="cls-1" d="M95.93,122.8c-12-2.9-17.92-14.51-15.1-26.27C84.07,83,99,73.19,112.32,79.8c6.59,3.28,11.51,10.07,10.83,17.68s-7.58,13.42-15.1,13.6c-5.68.14-13.71-4.31-12.65-11.07a6.81,6.81,0,0,1,6.23-5.41c2.6-.05,4.84,1,3.08,3.57-2.71,4,3.79,7.77,6.48,3.79,3.94-5.82,1.18-12.4-5.52-14.29a14.19,14.19,0,0,0-16.82,8.26c-2.76,6.84.82,14.44,6.41,18.66,6.52,4.92,15.73,5.1,22.9,1.49,18-9,14.92-33.53-1.43-42.43C100.81,65,81.33,74,74.95,90.33s1.27,35.42,19,39.7c4.69,1.13,6.69-6.1,2-7.23Z" transform="translate(-72.71 -70.29)"/></svg>