<svg width="95" height="99" viewBox="0 0 95 99" fill="none" xmlns="http://www.w3.org/2000/svg">
<g clip-path="url(#clip0_2189_525)">
<path d="M38.3276 86.3372C18.8362 81.5681 9.17241 62.6561 13.7586 43.4153C19.1638 20.8854 44.2241 4.93355 66.0086 16.6096C76.1638 22.0365 83.6983 32.8904 82.5517 44.8953C81.4052 58.0515 68.7931 67.9186 55.8534 66.9319C46.8448 66.2741 38.1638 60.0249 38.6552 50.1578C38.819 47.0332 39.9655 43.5797 42.9138 41.7708C46.3535 39.7973 55.8535 40.2907 52.4138 45.7176C47.9914 52.789 59.1293 59.2026 63.5517 52.2957C71.25 40.2907 62.0776 28.9435 49.1379 27.9568C38.6552 27.1345 29.4828 33.5482 26.6983 43.9086C19 72.0299 52.9052 86.8306 74.8535 75.6478C104.009 60.8472 99.5862 21.2143 73.5431 5.92026C47.6638 -8.8804 15.069 5.26245 4.09483 32.2326C-7.0431 59.5316 5.40517 91.5997 35.0517 98.8355C42.9138 100.809 46.3535 88.3106 38.3276 86.3372Z" fill="#283F68"/>
</g>
<defs>
<clipPath id="clip0_2189_525">
<rect width="95" height="99" fill="white"/>
</clipPath>
</defs>
</svg>
