<svg id="Capa_1" data-name="Capa 1" xmlns="http://www.w3.org/2000/svg" viewBox="0 0 210 170"><defs><style>.cls-1{fill:#283f68;}.cls-2{fill:#fff;}</style></defs><title>favicon</title><rect class="cls-1" width="210" height="170" rx="29.83" ry="29.83"/><path class="cls-2" d="M55.86,75.63c-10.59-.45-21.26-5.84-25.28-16.16a22.29,22.29,0,0,1,5.08-23.84c9.14-9.33,24.18-10,35.78-5.4A31.82,31.82,0,0,1,86.39,41.86c5.09,7.73,6.14,18.38,7.18,27.35,2.6,22.46.75,45.17-1,67.62-.12,1.61,0,6.67-2.21,7.46-1.17.42-.42.17-.28.21-.91-.25-1.8-3.23-2.12-4.17-1.8-5.33-2.42-11.1-2.89-16.68C83.94,110,84.74,96.77,88.52,83.5c5.6-19.69,18.8-39.85,41.17-41.42,12.59-.88,21.8,6.32,23.74,18.87,1.51,9.76-1,19.94-2.54,29.55-2.57,15.6-7.28,36.59,2.16,50.84a21,21,0,0,0,22.81,8.74c9.42-2.56,15.44-12,14.75-21.58-.35-4.79-7.85-4.82-7.5,0,.9,12.37-14.33,20.47-22.85,10-5.85-7.17-5.31-18.47-4.66-27.12.71-9.49,2.56-18.87,4.06-28.26,1.73-10.81,3.15-22.27-1.54-32.58-10.12-22.22-38.65-18.4-54.86-5.51C85.33,59.32,78,85.13,77,107.14c-.52,11.27.15,24,3.58,34.81,1.37,4.31,3.83,9.76,9.06,10,9.25.47,10.1-11.35,10.6-17.78,2-26,3.89-52.54-1.26-78.33-1.74-8.69-4.17-16.71-10.48-23.19a42.56,42.56,0,0,0-19-11C53.81,17.3,35.06,21.34,26,35.9a29.64,29.64,0,0,0-.31,30.61c6.22,10.68,18.17,16.11,30.17,16.62,4.83.2,4.82-7.3,0-7.5Z" transform="translate(-1 -1)"/></svg>