<svg id="Capa_1" data-name="Capa 1" xmlns="http://www.w3.org/2000/svg" viewBox="0 0 31.78 205.33"><defs><style>.cls-1{fill:#ff489b;}</style></defs><title>filete</title><path class="cls-1" d="M137,91.54a8.33,8.33,0,0,0,8.46,8.81c5.31-.1,9.31-4.93,10.34-9.78,2.43-11.41-9.11-21-19.91-16.78-12.83,5-12.59,23.6-9.92,34.6,3.47,14.29,14.59,25,17.14,39.64,1,5.47,1.36,11.63-.52,17-2.3,6.51-7.84,8.39-14.33,7.76a2.18,2.18,0,0,0-2.16,2.16V176a2.17,2.17,0,0,0,2.16,2.16c5.29-.52,10.5.39,13.29,5.38,2.44,4.36,2.54,9.82,2.16,14.68a49.35,49.35,0,0,1-4.34,16.95c-3.34,7.14-8.32,13.38-11.26,20.73-4.5,11.23-6.69,29.76,3.62,38.71,8.93,7.76,23.15,1.81,24.29-9.78.56-5.67-2.29-12-8.07-13.83A8.35,8.35,0,0,0,137,259.33c.19,2.76,4.51,2.78,4.32,0-.36-5.34,5.72-5.12,8.29-2.23a9.45,9.45,0,0,1,2.19,5.74,10.52,10.52,0,0,1-6.9,10.4c-10.6,3.63-15.42-8-15.94-16.4a45.57,45.57,0,0,1,5.28-23.94c3.51-6.7,8.13-12.81,10.74-20,5.47-15.07,5.63-41.29-16.71-39.1l2.16,2.16v-1.1L128.3,177c22.34,2.19,22.19-24,16.71-39.1-2.5-6.89-6.86-12.82-10.33-19.23A46,46,0,0,1,129,94c.49-8.4,5.35-20,15.94-16.4a10.53,10.53,0,0,1,6.9,10.4,9.25,9.25,0,0,1-2.19,5.74c-2.57,2.9-8.65,3.12-8.29-2.23.19-2.77-4.13-2.76-4.32,0Z" transform="translate(-124.39 -72.77)"/></svg>