<?xml version="1.0" encoding="utf-8"?>
<!-- Generator: Adobe Illustrator 21.0.0, SVG Export Plug-In . SVG Version: 6.00 Build 0)  -->
<svg version="1.1" id="Capa_1" xmlns="http://www.w3.org/2000/svg" xmlns:xlink="http://www.w3.org/1999/xlink" x="0px" y="0px"
	 viewBox="0 0 116 110" style="enable-background:new 0 0 116 110;" xml:space="preserve">
<style type="text/css">
	.st0{fill:#283F68;}
</style>
<g>
	<g>
		<path class="st0" d="M17.1,55.9c14.6,4.3,33.7,1.5,47.3-5.1c13.8-6.7,25.4-25.4,17-40.3c-3.9-6.8-13.3-9.9-18.2-2.3
			c-4.2,6.6-3.1,16.3-1.7,23.5c3.3,17.3,15,34.3,31.2,41.9c7.1,3.3,16.6,3.6,20.2-4.7c3.4-8.1-3.3-12.5-10.4-13.7
			c-18.9-3.1-39.4,1.5-52.3,16.4C44.7,78,39.6,87,40.1,95.7c0.5,7.7,7.8,15.1,15.8,11.8c7.3-3,8.1-12.2,8.4-19
			c0.4-9.8-0.4-19.9-3.6-29.2c-5.8-16.9-22-32.3-41.1-28.9c-5.5,1-13.3,3.2-15.5,9.2C1.5,47.7,10.9,53.7,17.1,55.9
			c4.6,1.6,6.5-5.6,2-7.2c-2.7-0.9-9.8-4.2-6.8-7.6c2.1-2.3,7.3-3.1,10.3-3.4c10.8-1.4,21.6,6.5,26.9,15.3c6.8,11.1,8,24.7,7.2,37.3
			c-0.2,2.7-0.3,5.7-1.6,8.1c-1.7,3.1-5,3.1-6.8-0.1c-3.3-5.6,2-14.6,5.4-19.2c7.8-10.6,20.4-16.4,33.3-17.2
			c3.4-0.2,6.8-0.2,10.2,0.2c1.5,0.1,7.2,0.3,8.4,1.7c3.2,3.6-3.9,5-6,4.6c-3.3-0.7-6.4-2.7-9.1-4.6c-9.7-6.7-16.9-17-20.3-28.2
			c-1.6-5.3-2.5-10.9-2.2-16.4c0.1-2.4,0.3-8.8,4.4-7.6c2.9,0.9,4,6.4,4.2,8.8c1,12.6-10,22.5-21.1,26c-11.3,3.6-24.8,5.8-36.4,2.4
			C14.5,47.3,12.5,54.5,17.1,55.9z"/>
	</g>
</g>
</svg>
