<svg width="312" height="313" viewBox="0 0 312 313" fill="none" xmlns="http://www.w3.org/2000/svg">
<g clip-path="url(#clip0_2189_529)">
<path d="M101.767 89.3608C113.716 118.367 142.85 145.721 171.146 159.203C199.892 172.588 245.201 167.102 258.318 134.075C264.526 118.77 256.946 99.4748 238.12 101.388C221.965 103.005 207.933 117.46 197.854 129.266C174.327 156.91 162.099 197.95 170.813 233.788C174.651 249.744 186.568 265.552 204.871 260.357C222.563 255.389 221.17 238.525 213.798 225.41C194.368 191.047 160.213 164.026 119.489 162.388C101.976 161.658 80.9328 165.09 67.5721 177.419C55.6886 188.296 53.0378 209.998 68.9605 218.618C83.2076 226.47 99.4379 216.065 110.619 207.604C126.878 195.589 142.068 181.26 152.874 164.109C172.562 132.676 176.377 86.7639 146.118 60.3137C137.569 52.6413 123.671 42.9219 111.321 47.2977C94.6938 53.2613 97.1647 76.3996 101.767 89.3608C105.236 99.2667 120.027 92.6638 116.688 82.9185C114.615 77.7089 110.714 62.3318 119.6 62.8572C126.007 63.26 133.847 70.7088 138.235 74.8505C154.432 90.3907 155.432 117.621 148.431 137.531C139.544 162.661 119.119 181.992 97.9752 197.141C93.5405 200.178 88.4317 204.021 83.0582 204.903C76.1728 206.207 72.3298 201.099 74.824 194.333C79.6865 181.96 100.828 178.979 112.318 178.468C139.129 177.276 164.719 190.025 182.825 209.584C187.538 214.787 191.929 220.248 195.678 226.227C197.325 228.605 204.495 238.18 203.666 241.755C201.79 250.933 191.08 241.56 189.139 237.831C186.131 231.787 185.211 224.063 184.776 217.272C182.85 193.167 190.096 168.299 203.825 148.533C210.272 139.118 218.073 130.729 227.327 123.818C231.151 121.008 241.529 113.193 244.669 120.718C247.13 126.409 239.587 135.119 235.99 138.54C217.202 156.29 187.093 151.407 167.425 138.128C147.048 124.626 126.208 105.943 116.688 82.9185C112.447 73.3686 97.6877 79.6817 101.767 89.3608Z" fill="#283F68"/>
</g>
<defs>
<clipPath id="clip0_2189_529">
<rect width="227.756" height="216.213" fill="white" transform="translate(168.503) rotate(51.2)"/>
</clipPath>
</defs>
</svg>
