<?xml version="1.0" encoding="utf-8"?>
<!-- Generator: Adobe Illustrator 27.5.0, SVG Export Plug-In . SVG Version: 6.00 Build 0)  -->
<svg version="1.1" xmlns="http://www.w3.org/2000/svg" xmlns:xlink="http://www.w3.org/1999/xlink" x="0px" y="0px"
	 viewBox="0 0 500 500" style="enable-background:new 0 0 500 500;" xml:space="preserve">
<g id="Background">
</g>
<g id="Objects">
	<g>
		<g>
			<g>
				<path style="fill-rule:evenodd;clip-rule:evenodd;" d="M77.353,121.585v18.331c0,0.264,0.214,0.477,0.477,0.477h6.807
					c0.264,0,0.477-0.214,0.477-0.477v-18.63h4.936c0.248,0,0.455-0.19,0.476-0.437l0.474-5.613
					c0.023-0.278-0.196-0.518-0.476-0.518h-5.41v-3.982c0-0.933,0.757-1.69,1.69-1.69h3.803c0.264,0,0.477-0.214,0.477-0.478v-5.613
					c0-0.264-0.213-0.478-0.477-0.478h-6.427c-3.771,0-6.828,3.058-6.828,6.829v5.412h-3.404c-0.264,0-0.478,0.214-0.478,0.477
					v5.613c0,0.264,0.214,0.478,0.478,0.478h3.404V121.585z"/>
			</g>
			<path d="M82.279,83.966c-20.661,0-37.47,16.809-37.47,37.47c0,20.661,16.809,37.47,37.47,37.47
				c20.661,0,37.47-16.809,37.47-37.47C119.749,100.775,102.94,83.966,82.279,83.966z M114.943,121.436
				c0,18.011-14.653,32.665-32.664,32.665c-18.012,0-32.665-14.653-32.665-32.665c0-18.012,14.653-32.665,32.665-32.665
				C100.29,88.771,114.943,103.424,114.943,121.436z"/>
		</g>
	</g>
	<g>
		<g>
			<path d="M398.978,130.566c0-0.195,0-0.39,0-0.586c0.24-0.278,0.493-0.515,0.883-0.592c3.075-0.609,5.132-2.569,6.683-5.143
				c1.304-2.163,1.095-2.659-1.309-3.509c-0.138-0.049-0.279-0.088-0.414-0.144c-0.52-0.213-1.033-0.441-1.462-0.814
				c-1.077-0.935-0.44-2.284,0.829-2.589c0.928-0.223,1.736,0.374,2.636,0.486c0.602,0.075,0.842-0.128,0.768-0.769
				c-0.19-1.651-0.185-3.311-0.108-4.968c0.148-3.16,1.702-5.568,4.336-7.129c3.845-2.278,7.863-2.307,11.736-0.035
				c2.417,1.418,3.977,3.564,4.315,6.442c0.221,1.873,0.133,3.748-0.015,5.623c-0.064,0.814,0.102,0.963,0.907,0.775
				c0.999-0.234,1.837-0.749,2.875-0.293c0.556,0.244,1.04,0.769,1.025,1.376c-0.01,0.416-0.253,0.798-0.566,1.071
				c-0.48,0.418-1.105,0.65-1.688,0.886c-0.451,0.183-0.921,0.325-1.361,0.531c-0.908,0.425-1.169,0.987-0.744,1.886
				c1.471,3.11,3.632,5.47,7.129,6.29c0.426,0.1,0.768,0.274,1.027,0.62c0,0.195,0,0.391,0,0.586
				c-0.331,0.682-0.924,1.057-1.597,1.313c-0.683,0.259-1.37,0.548-2.104,0.596c-1.013,0.065-1.547,0.507-1.701,1.562
				c-0.147,1.004-0.449,1.146-1.473,1.063c-0.242-0.019-0.483-0.064-0.723-0.107c-2.004-0.356-3.885-0.153-5.533,1.178
				c-0.322,0.26-0.679,0.477-1.026,0.702c-2.807,1.821-5.683,2.031-8.615,0.32c-0.8-0.466-1.558-1.004-2.333-1.511
				c-0.642-0.419-1.332-0.654-2.102-0.77c-1.215-0.184-2.38,0.089-3.563,0.219c-0.608,0.067-1.195-0.106-1.23-0.735
				c-0.082-1.516-1.012-1.886-2.286-2.026c-0.594-0.065-1.18-0.307-1.74-0.54C399.825,131.574,399.269,131.211,398.978,130.566z"/>
		</g>
		<path d="M417.721,83.255c-20.661,0-37.471,16.809-37.471,37.47c0,20.661,16.81,37.47,37.471,37.47s37.47-16.809,37.47-37.47
			C455.191,100.064,438.382,83.255,417.721,83.255z M417.721,153.389c-18.012,0-32.665-14.653-32.665-32.665
			s14.653-32.665,32.665-32.665c18.011,0,32.664,14.653,32.664,32.665S435.732,153.389,417.721,153.389z"/>
	</g>
	<g>
		<g>
			<g>
				<path d="M213.095,109.5c-1.224,0.554-2.615,0.89-3.936,1.112c0.627-0.106,1.53-1.241,1.9-1.7c0.564-0.7,1.022-1.499,1.286-2.361
					c0.034-0.067,0.054-0.152-0.013-0.203c-0.085-0.034-0.142-0.016-0.209,0.017c-1.474,0.791-3.001,1.364-4.625,1.77
					c-0.135,0.034-0.235,0-0.32-0.085c-0.135-0.152-0.261-0.295-0.404-0.413c-0.682-0.581-1.415-1.036-2.24-1.372
					c-1.084-0.442-2.268-0.629-3.435-0.553c-1.135,0.074-2.251,0.394-3.259,0.921c-1.01,0.528-1.911,1.262-2.629,2.147
					c-0.742,0.916-1.29,1.998-1.57,3.145c-0.271,1.107-0.248,2.202-0.083,3.32c0.025,0.186,0.008,0.211-0.159,0.186
					c-6.351-0.945-11.615-3.217-15.888-8.087c-0.186-0.212-0.286-0.212-0.439,0.016c-1.87,2.803-0.962,7.307,1.373,9.52
					c0.312,0.295,0.632,0.59,0.977,0.859c-0.126,0.026-1.68-0.143-3.066-0.859c-0.186-0.117-0.279-0.05-0.295,0.161
					c-0.017,0.303,0.009,0.581,0.05,0.91c0.359,2.841,2.327,5.469,5.021,6.495c0.32,0.134,0.674,0.253,1.019,0.311
					c-0.614,0.135-1.246,0.231-3.007,0.093c-0.219-0.042-0.303,0.067-0.219,0.278c1.323,3.606,4.179,4.679,6.318,5.291
					c0.286,0.05,0.573,0.05,0.86,0.117c-0.017,0.026-0.035,0.026-0.051,0.051c-0.71,1.082-3.169,1.887-4.315,2.287
					c-2.083,0.728-4.351,1.056-6.553,0.838c-0.352-0.052-0.426-0.048-0.522,0c-0.097,0.06-0.012,0.144,0.101,0.235
					c0.447,0.295,0.902,0.557,1.365,0.81c1.398,0.741,2.856,1.331,4.38,1.752c7.872,2.174,16.74,0.577,22.65-5.296
					c4.641-4.612,6.268-10.972,6.268-17.34c0-0.249,0.294-0.387,0.47-0.518c1.208-0.908,2.253-1.993,3.154-3.206
					c0.202-0.272,0.275-0.514,0.275-0.614c0-0.017,0-0.034,0-0.034C213.324,109.399,213.252,109.429,213.095,109.5z"/>
			</g>
			<path d="M193.972,84.096c-20.661,0-37.47,16.809-37.47,37.47c0,20.661,16.809,37.47,37.47,37.47
				c20.661,0,37.47-16.809,37.47-37.47C231.441,100.905,214.633,84.096,193.972,84.096z M193.972,154.231
				c-18.012,0-32.665-14.653-32.665-32.665c0-18.012,14.653-32.665,32.665-32.665s32.665,14.653,32.665,32.665
				C226.637,139.578,211.983,154.231,193.972,154.231z"/>
		</g>
	</g>
	<g>
		<g>
			<g>
				<path d="M321.24,111.166c0,1.24-1.005,2.245-2.245,2.245c-1.24,0-2.245-1.005-2.245-2.245c0-1.24,1.005-2.245,2.245-2.245
					C320.235,108.921,321.24,109.926,321.24,111.166z M318.445,121.228c0,5.199-4.23,9.429-9.428,9.429
					c-5.199,0-9.429-4.23-9.429-9.429c0-5.199,4.23-9.428,9.429-9.428C314.216,111.8,318.445,116.03,318.445,121.228z
					 M315.057,121.228c0-3.33-2.71-6.04-6.04-6.04c-3.33,0-6.04,2.71-6.04,6.04c0,3.331,2.71,6.04,6.04,6.04
					C312.347,127.268,315.057,124.559,315.057,121.228z M328.1,113.654c0-6.351-5.149-11.5-11.5-11.5h-15.693
					c-6.351,0-11.5,5.149-11.5,11.5v15.694c0,6.351,5.149,11.5,11.5,11.5H316.6c6.352,0,11.5-5.149,11.5-11.5V113.654z
					 M324.325,129.175c0,4.362-3.537,7.898-7.899,7.898H301.08c-4.362,0-7.899-3.536-7.899-7.898v-15.348
					c0-4.362,3.536-7.898,7.899-7.898h15.347c4.362,0,7.899,3.536,7.899,7.898V129.175z"/>
			</g>
			<path d="M308.753,84.031c-20.661,0-37.47,16.809-37.47,37.47c0,20.661,16.809,37.47,37.47,37.47s37.47-16.809,37.47-37.47
				C346.223,100.84,329.414,84.031,308.753,84.031z M308.753,154.165c-18.011,0-32.664-14.653-32.664-32.664
				c0-18.011,14.653-32.665,32.664-32.665c18.012,0,32.665,14.653,32.665,32.665C341.418,139.512,326.765,154.165,308.753,154.165z"
				/>
		</g>
	</g>
	<g>
		<g>
			<path d="M65.576,295.839h7.168v23.025h-7.168V295.839z M69.161,284.397c2.292,0,4.149,1.86,4.149,4.147
				c0,2.29-1.857,4.153-4.149,4.153c-2.298,0-4.155-1.862-4.155-4.153C65.006,286.257,66.863,284.397,69.161,284.397
				 M77.234,318.863h7.153v-11.389c0-3.003,0.568-5.911,4.293-5.911c3.667,0,3.719,3.434,3.719,6.106v11.194h7.152v-12.628
				c0-6.201-1.336-10.967-8.582-10.967c-3.485,0-5.82,1.907-6.777,3.72H84.1v-3.15h-6.865V318.863z"/>
		</g>
		<path d="M82.279,267.981c-20.661,0-37.47,16.809-37.47,37.47c0,20.661,16.809,37.471,37.47,37.471s37.471-16.81,37.471-37.471
			C119.75,284.789,102.94,267.981,82.279,267.981z M82.279,338.116c-18.011,0-32.664-14.653-32.664-32.665
			c0-18.011,14.653-32.664,32.664-32.664c18.012,0,32.665,14.653,32.665,32.664C114.944,323.462,100.291,338.116,82.279,338.116z"/>
	</g>
	<g>
		<g>
			<path d="M213.987,300.386c0-4.833-3.919-8.752-8.752-8.752h-22.525c-4.834,0-8.752,3.918-8.752,8.752v9.885
				c0,4.834,3.918,8.752,8.752,8.752h22.525c4.834,0,8.752-3.918,8.752-8.752V300.386z M201.6,305.589l-10.074,4.965
				c-0.393,0.213-1.768-0.072-1.768-0.52v-10.192c0-0.453,1.386-0.738,1.779-0.513l9.626,5.226
				C201.566,304.786,202.008,305.368,201.6,305.589z"/>
		</g>
		<path d="M193.972,267.859c-20.661,0-37.47,16.809-37.47,37.47c0,20.661,16.809,37.471,37.47,37.471
			c20.661,0,37.47-16.81,37.47-37.471C231.442,284.667,214.633,267.859,193.972,267.859z M193.972,337.993
			c-18.012,0-32.665-14.653-32.665-32.665c0-18.011,14.653-32.664,32.665-32.664s32.665,14.653,32.665,32.664
			C226.637,323.34,211.984,337.993,193.972,337.993z"/>
	</g>
	<g>
		<g>
			<path style="fill-rule:evenodd;clip-rule:evenodd;" d="M306.4,312.86c-0.036,0.121-0.068,0.222-0.095,0.324
				c-1.543,6.046-1.715,7.389-3.301,10.197c-0.756,1.334-1.608,2.6-2.55,3.81c-0.107,0.137-0.206,0.314-0.419,0.27
				c-0.232-0.05-0.251-0.258-0.276-0.445c-0.254-1.837-0.394-3.68-0.333-5.534c0.08-2.417,0.379-3.246,3.494-16.344
				c0.045-0.2-0.005-0.366-0.073-0.546c-0.745-2.011-0.892-4.052-0.241-6.121c1.41-4.467,6.475-4.81,7.361-1.123
				c0.545,2.28-0.898,5.263-2.006,9.673c-0.918,3.639,3.366,6.226,7.027,3.569c3.376-2.448,4.687-8.319,4.437-12.48
				c-0.491-8.296-9.587-10.089-15.359-7.418c-6.616,3.059-8.12,11.261-5.133,15.009c0.379,0.477,0.671,0.768,0.546,1.251
				c-0.192,0.75-0.362,1.507-0.57,2.253c-0.154,0.555-0.619,0.757-1.181,0.529c-1.101-0.445-2.018-1.147-2.763-2.07
				c-2.538-3.141-3.263-9.355,0.091-14.615c3.716-5.828,10.629-8.185,16.94-7.47c7.538,0.857,12.302,6.008,13.195,11.85
				c0.406,2.662,0.114,9.225-3.622,13.864c-4.298,5.331-11.266,5.684-14.481,2.412C306.841,313.453,306.642,313.159,306.4,312.86z"
				/>
		</g>
		<path d="M308.753,268.379c-20.661,0-37.47,16.809-37.47,37.47c0,20.661,16.809,37.471,37.47,37.471
			c20.661,0,37.47-16.81,37.47-37.471C346.223,285.188,329.414,268.379,308.753,268.379z M308.753,338.514
			c-18.012,0-32.665-14.653-32.665-32.665c0-18.011,14.653-32.664,32.665-32.664c18.011,0,32.664,14.653,32.664,32.664
			C341.417,323.861,326.764,338.514,308.753,338.514z"/>
	</g>
	<g>
		<g id="XMLID_505_">
			<g id="XMLID_511_">
				<path d="M412.391,316.841c1.049-0.217,1.959-0.622,2.731-1.213c0.683-0.513,1.255-1.147,1.712-1.901
					c0.717-1.139,1.075-2.422,1.075-3.855c0-1.387-0.314-2.568-0.941-3.54c-0.628-0.973-1.558-1.684-2.792-2.133
					c0.812-0.415,1.426-0.874,1.844-1.377c0.745-0.895,1.119-2.083,1.119-3.558c0-1.432-0.371-2.662-1.11-3.689
					c-1.228-1.671-3.317-2.529-6.262-2.573h-11.681v24.167h10.89C410.203,317.17,411.343,317.06,412.391,316.841z M402.906,297.2
					h5.258c1.158,0,2.109,0.125,2.856,0.378c0.866,0.36,1.299,1.103,1.299,2.229c0,1.017-0.328,1.725-0.983,2.124
					c-0.653,0.399-1.506,0.598-2.556,0.598h-5.874V297.2z M402.906,312.972v-6.442h5.948c1.04,0.011,1.843,0.146,2.416,0.409
					c1.026,0.469,1.539,1.333,1.539,2.589c0,1.486-0.53,2.492-1.588,3.018c-0.583,0.284-1.4,0.425-2.446,0.425H402.906z"/>
			</g>
			<g id="XMLID_506_">
				<g id="XMLID_508_">
					<path d="M422.002,315.578c1.818,1.467,3.916,2.199,6.294,2.199c2.882,0,5.124-0.868,6.723-2.607
						c1.031-1.094,1.608-2.171,1.734-3.23h-4.771c-0.277,0.524-0.598,0.933-0.962,1.228c-0.666,0.547-1.53,0.821-2.595,0.821
						c-1.004,0-1.862-0.224-2.575-0.673c-1.174-0.722-1.797-1.978-1.869-3.772h13.015c0.023-1.542-0.028-2.725-0.154-3.546
						c-0.217-1.401-0.692-2.633-1.424-3.694c-0.81-1.204-1.841-2.086-3.089-2.644c-1.245-0.558-2.646-0.836-4.202-0.836
						c-2.618,0-4.748,0.826-6.39,2.478c-1.641,1.65-2.462,4.025-2.462,7.12C419.275,311.726,420.184,314.111,422.002,315.578z
						 M425.34,303.697c0.661-0.68,1.59-1.02,2.789-1.02c1.103,0,2.028,0.321,2.773,0.962c0.745,0.642,1.16,1.585,1.245,2.824h-8.051
						C424.265,305.3,424.68,304.378,425.34,303.697z"/>
				</g>
				<g id="XMLID_507_">
					<rect x="422.572" y="294.392" width="10.502" height="2.439"/>
				</g>
			</g>
		</g>
		<path d="M417.721,267.981c-20.661,0-37.471,16.809-37.471,37.47c0,20.661,16.81,37.471,37.471,37.471
			c20.661,0,37.47-16.81,37.47-37.471C455.191,284.789,438.382,267.981,417.721,267.981z M417.721,338.116
			c-18.012,0-32.665-14.653-32.665-32.665c0-18.011,14.653-32.664,32.665-32.664c18.011,0,32.664,14.653,32.664,32.664
			C450.385,323.462,435.732,338.116,417.721,338.116z"/>
	</g>
	<g>
		<g>
			<g>
				<path d="M89.537,400.086c-0.783-0.469-1.802-0.991-2.724-0.614c-0.707,0.29-1.159,1.397-1.618,1.963
					c-0.236,0.29-0.517,0.336-0.878,0.19c-2.656-1.058-4.692-2.832-6.158-5.275c-0.248-0.38-0.204-0.679,0.096-1.031
					c0.443-0.521,0.999-1.113,1.119-1.816c0.12-0.703-0.21-1.524-0.501-2.15c-0.371-0.8-0.786-1.94-1.587-2.392
					c-0.736-0.416-1.706-0.183-2.362,0.351c-1.132,0.922-1.678,2.366-1.662,3.798c0.005,0.407,0.054,0.813,0.15,1.205
					c0.228,0.945,0.665,1.826,1.156,2.665c0.37,0.632,0.773,1.246,1.207,1.836c1.421,1.93,3.189,3.607,5.235,4.861
					c1.023,0.626,2.124,1.176,3.265,1.553c1.279,0.423,2.419,0.863,3.801,0.6c1.446-0.275,2.872-1.17,3.446-2.563
					c0.17-0.413,0.255-0.872,0.16-1.308C91.486,401.058,90.266,400.522,89.537,400.086z"/>
			</g>
			<g>
				<path d="M82.46,378.416c-10.49,0-19.024,8.534-19.024,19.024c0,3.208,0.823,6.37,2.387,9.19l-2.762,10.303l10.356-2.774
					c2.784,1.51,5.894,2.305,9.043,2.305c10.49,0,19.024-8.534,19.024-19.024C101.484,386.95,92.95,378.416,82.46,378.416z
					 M82.46,412.868c-2.758,0-5.482-0.754-7.876-2.181l-0.652-0.389l-5.785,1.55l1.542-5.753l-0.4-0.657
					c-1.476-2.424-2.256-5.19-2.256-7.999c0-8.507,6.921-15.428,15.428-15.428c8.507,0,15.428,6.921,15.428,15.428
					S90.967,412.868,82.46,412.868z"/>
			</g>
		</g>
		<path d="M82.279,360.225c-20.661,0-37.47,16.809-37.47,37.47c0,20.661,16.809,37.47,37.47,37.47
			c20.661,0,37.471-16.809,37.471-37.47C119.75,377.033,102.94,360.225,82.279,360.225z M82.279,430.358
			c-18.011,0-32.664-14.653-32.664-32.664c0-18.012,14.653-32.665,32.664-32.665c18.012,0,32.665,14.653,32.665,32.665
			C114.944,415.705,100.291,430.358,82.279,430.358z"/>
	</g>
	<g>
		<g id="XMLID_502_">
			<path d="M399.508,397.666c0,10.046,8.143,18.19,18.19,18.19c1.166,0,2.305-0.113,3.409-0.324c1.6,0.967,3.475,1.525,5.483,1.525
				c5.862-0.002,10.615-4.755,10.615-10.618c0-2.056-0.586-3.973-1.597-5.6c0.18-1.03,0.28-2.091,0.28-3.173
				c0-10.047-8.145-18.19-18.19-18.19c-1.144,0-2.263,0.11-3.35,0.312c-1.607-0.979-3.494-1.542-5.511-1.542
				c-5.864,0-10.617,4.753-10.617,10.617c0,2.044,0.579,3.952,1.58,5.572C399.612,395.483,399.508,396.562,399.508,397.666z
				 M417.894,384.741c5.867,0.344,9.302,2.924,9.636,5.334c0.164,1.575-0.884,2.799-2.701,2.799c-2.654,0-2.924-3.537-7.494-3.537
				c-2.061,0-3.801,0.857-3.801,2.716c0,3.885,14.641,1.629,14.641,10.181c0,4.93-3.946,8.16-9.837,8.16
				c-5.181,0-10.388-2.348-10.361-6.392c0.008-1.221,0.919-2.34,2.129-2.34c3.051,0,3.023,4.533,7.881,4.533
				c3.407,0,4.571-1.859,4.571-3.155c0-4.679-14.728-1.81-14.728-10.611C407.832,387.665,411.745,384.38,417.894,384.741z"/>
		</g>
		<path d="M417.721,360.225c-20.661,0-37.471,16.809-37.471,37.47c0,20.661,16.81,37.47,37.471,37.47
			c20.661,0,37.47-16.809,37.47-37.47C455.191,377.033,438.382,360.225,417.721,360.225z M417.721,430.358
			c-18.012,0-32.665-14.653-32.665-32.664c0-18.012,14.653-32.665,32.665-32.665c18.011,0,32.664,14.653,32.664,32.665
			C450.385,415.705,435.732,430.358,417.721,430.358z"/>
	</g>
	<g>
		<g id="XMLID_500_">
			<g id="XMLID_501_">
				<path d="M321.711,382.283c-5.426-0.175-9.1,2.888-11.026,9.192c0.993-0.427,1.961-0.643,2.898-0.643
					c1.991,0,2.87,1.121,2.635,3.357c-0.117,1.352-0.995,3.322-2.635,5.913c-1.642,2.589-2.872,3.883-3.691,3.883
					c-1.057,0-2.022-1.993-2.9-5.985c-0.297-1.172-0.823-4.164-1.583-8.975c-0.704-4.46-2.579-6.543-5.625-6.25
					c-1.29,0.118-3.225,1.29-5.802,3.516c-1.876,1.699-3.781,3.399-5.713,5.097l1.843,2.374c1.755-1.228,2.78-1.846,3.071-1.846
					c1.345,0,2.6,2.111,3.772,6.324c1.054,3.864,2.107,7.726,3.161,11.591c1.576,4.215,3.507,6.32,5.789,6.32
					c3.684,0,8.186-3.46,13.509-10.38c5.147-6.626,7.809-11.845,7.983-15.658C327.629,385.011,325.734,382.403,321.711,382.283z"/>
			</g>
		</g>
		<path d="M308.753,360.744c-20.661,0-37.47,16.81-37.47,37.471c0,20.661,16.809,37.47,37.47,37.47
			c20.661,0,37.471-16.809,37.471-37.47C346.224,377.554,329.414,360.744,308.753,360.744z M308.753,430.879
			c-18.011,0-32.664-14.653-32.664-32.664c0-18.012,14.653-32.665,32.664-32.665c18.012,0,32.665,14.653,32.665,32.665
			C341.418,416.226,326.765,430.879,308.753,430.879z"/>
	</g>
	<g>
		<g>
			<g>
				<path d="M194.639,377.374c-11.062,0-20.03,8.363-20.03,18.678c0,5.912,2.946,11.183,7.544,14.605l0.018,6.954l6.711-3.665
					c1.823,0.509,3.756,0.783,5.757,0.783c11.062,0,20.03-8.363,20.03-18.678C214.669,385.737,205.701,377.374,194.639,377.374z
					 M207.514,390.965c-3.608,3.857-7.217,7.713-10.842,11.586c-1.707-1.832-3.398-3.646-5.095-5.467
					c-1.665,0.915-8.243,4.534-9.884,5.435c-0.007-0.009-0.014-0.018-0.021-0.027c0.008-0.018,0.011-0.039,0.023-0.052
					c3.62-3.869,7.24-7.737,10.875-11.621c0.268,0.262,4.963,5.189,5.224,5.461c3.256-1.811,6.505-3.623,9.756-5.432
					c0.008,0.01,0.015,0.02,0.023,0.03C207.553,390.907,207.537,390.94,207.514,390.965z"/>
			</g>
		</g>
		<path d="M193.972,360.001c-20.661,0-37.47,16.809-37.47,37.471c0,20.661,16.809,37.47,37.47,37.47
			c20.661,0,37.47-16.809,37.47-37.47C231.442,376.81,214.633,360.001,193.972,360.001z M193.972,430.136
			c-18.012,0-32.665-14.653-32.665-32.664c0-18.012,14.653-32.665,32.665-32.665c18.012,0,32.665,14.653,32.665,32.665
			C226.637,415.482,211.984,430.136,193.972,430.136z"/>
	</g>
	<g>
		<g id="XMLID_495_">
			<path d="M417.992,192.598c-11.144,0-20.178,9.034-20.178,20.178c0,11.144,9.034,20.178,20.178,20.178
				c11.144,0,20.178-9.034,20.178-20.178C438.17,201.632,429.136,192.598,417.992,192.598z M427.274,221.755
				c-0.404,0.605-1.11,0.807-1.715,0.404c-4.742-2.926-10.695-3.531-17.757-1.917c-0.706,0.202-1.311-0.302-1.513-0.908
				c-0.202-0.706,0.303-1.312,0.908-1.513c7.668-1.715,14.327-1.009,19.573,2.219C427.476,220.343,427.577,221.15,427.274,221.755z
				 M429.695,216.206c-0.504,0.706-1.412,1.009-2.119,0.505c-5.448-3.33-13.721-4.338-20.077-2.321
				c-0.807,0.202-1.715-0.202-1.917-1.009c-0.202-0.807,0.202-1.715,1.009-1.917c7.365-2.219,16.445-1.11,22.701,2.724
				C429.897,214.492,430.2,215.5,429.695,216.206z M429.897,210.557c-6.457-3.834-17.252-4.237-23.406-2.321
				c-1.009,0.303-2.018-0.303-2.321-1.21c-0.303-1.009,0.303-2.018,1.211-2.321c7.163-2.119,18.967-1.715,26.434,2.724
				c0.908,0.504,1.21,1.715,0.706,2.623C432.016,210.758,430.805,211.061,429.897,210.557z"/>
		</g>
		<path d="M417.721,250.779c20.661,0,37.47-16.809,37.47-37.47c0-20.661-16.809-37.47-37.47-37.47s-37.471,16.809-37.471,37.47
			C380.25,233.97,397.06,250.779,417.721,250.779z M417.721,180.645c18.011,0,32.664,14.653,32.664,32.665
			c0,18.011-14.653,32.665-32.664,32.665c-18.012,0-32.665-14.653-32.665-32.665C385.056,195.298,399.709,180.645,417.721,180.645z"
			/>
	</g>
	<g>
		<path d="M73.129,222.618c0,1.788,0.187,3.151,0.561,4.093c0.374,0.939,1.048,1.829,2.019,2.665
			c0.969,0.835,2.141,1.479,3.516,1.929c1.375,0.452,2.954,0.678,4.743,0.678c1.576,0,3.041-0.159,4.396-0.473
			c1.354-0.318,2.868-0.869,4.541-1.656V223.7c-1.961,1.289-3.932,1.933-5.914,1.933c-1.114,0-2.106-0.259-2.971-0.78
			c-0.653-0.383-1.1-0.898-1.341-1.542c-0.24-0.644-0.36-2.101-0.36-4.37v-10.04h9.294v-6.144H82.32v-9.914h-5.544
			c-0.251,2.017-0.706,3.676-1.366,4.983c-0.66,1.306-1.537,2.423-2.63,3.355c-1.092,0.93-2.404,1.645-3.936,2.145v5.576h4.285
			V222.618z"/>
		<path d="M82.279,175.839c-20.661,0-37.47,16.809-37.47,37.47c0,20.661,16.809,37.47,37.47,37.47
			c20.661,0,37.471-16.809,37.471-37.47C119.749,192.648,102.94,175.839,82.279,175.839z M82.279,245.974
			c-18.011,0-32.664-14.653-32.664-32.665c0-18.011,14.653-32.665,32.664-32.665c18.012,0,32.665,14.653,32.665,32.665
			C114.944,231.32,100.29,245.974,82.279,245.974z"/>
	</g>
	<g>
		<g id="XMLID_486_">
			<path d="M193.607,190.833c-12.151,0-22.001,9.851-22.001,22.003c0,12.15,9.85,22.001,22.001,22.001
				c12.152,0,22.002-9.85,22.002-22.001C215.61,200.684,205.759,190.833,193.607,190.833z M193.607,194.659
				c4.172,0,8.009,1.428,11.081,3.8c-2.208,2.849-5.258,5.101-9.143,6.746c-1.862-3.412-3.991-6.739-6.395-9.969
				C190.578,194.873,192.068,194.659,193.607,194.659z M185.408,196.636c2.441,3.195,4.603,6.488,6.485,9.867
				c-4.457,1.311-9.774,1.985-15.924,2.028C177.24,203.333,180.74,199.01,185.408,196.636z M175.433,212.834
				c0-0.157,0.021-0.311,0.025-0.467c7.055-0.011,13.142-0.821,18.241-2.425c0.427,0.87,0.837,1.745,1.229,2.626
				c-6.195,1.936-11.301,5.906-15.285,11.88C177.018,221.297,175.433,217.248,175.433,212.834z M193.607,231.01
				c-4.204,0-8.07-1.447-11.153-3.855c3.609-5.664,8.219-9.349,13.929-11.051c1.7,4.437,2.951,9.002,3.747,13.677
				C198.101,230.565,195.909,231.01,193.607,231.01z M203.696,227.942c-0.803-4.313-1.98-8.53-3.519-12.644
				c3.438-0.486,7.224-0.36,11.365,0.36C210.74,220.766,207.824,225.178,203.696,227.942z M198.71,211.676
				c-0.447-1.032-0.911-2.061-1.406-3.08c4.234-1.834,7.637-4.324,10.173-7.483c2.473,2.923,4.026,6.635,4.255,10.698
				C207.011,211.037,202.669,210.995,198.71,211.676z"/>
		</g>
		<path d="M193.972,175.717c-20.661,0-37.47,16.809-37.47,37.47c0,20.661,16.809,37.47,37.47,37.47
			c20.661,0,37.47-16.809,37.47-37.47C231.441,192.527,214.633,175.717,193.972,175.717z M193.972,245.852
			c-18.012,0-32.665-14.653-32.665-32.665c0-18.011,14.653-32.665,32.665-32.665c18.012,0,32.665,14.653,32.665,32.665
			C226.637,231.198,211.984,245.852,193.972,245.852z"/>
	</g>
	<g>
		<path d="M308.753,176.238c-20.661,0-37.47,16.809-37.47,37.47c0,20.661,16.809,37.47,37.47,37.47
			c20.661,0,37.47-16.809,37.47-37.47C346.223,193.047,329.414,176.238,308.753,176.238z M308.753,246.372
			c-18.012,0-32.665-14.653-32.665-32.664s14.653-32.665,32.665-32.665c18.011,0,32.664,14.653,32.664,32.665
			S326.764,246.372,308.753,246.372z"/>
		<g>
			<path style="fill-rule:evenodd;clip-rule:evenodd;" d="M308.971,191.073c0,0,3.785,8.214-2.541,14.963
				c-1.019,1.094-2.089,1.99-3.167,2.785c-1.229-1.407-2.242-3.496-2.146-6.537c0,0-9.316,9.478-8.884,18.772l-0.01-0.469
				c0,0.156,0,0.298,0.01,0.469c0.311,6.537,7.514,11.638,16.086,11.397c7.274-0.199,13.196-4.192,14.632-9.379h0.001
				C322.952,223.075,328.856,209.291,308.971,191.073z"/>
		</g>
	</g>
	<text transform="matrix(1 0 0 1 175.1035 37.2583)"><tspan x="0" y="0" style="font-family:'Montserrat-Black'; font-size:12.53px;">BLACK SOCIAL MEDIA</tspan><tspan x="12.417" y="18.795" style="font-family:'Montserrat-Regular'; font-size:12.53px;">LOGO COLLECTION</tspan></text>
</g>
<g id="Designed_by_Freepik">
	<g>
		<g id="XMLID_58_">
			<g id="XMLID_77_">
				<g id="XMLID_113_">
					<path d="M260.104,461.271c-0.432,0.443-0.803,0.931-1.108,1.453l-0.465-0.241c-0.067-0.298-0.349-0.503-0.659-0.466
						c-0.331,0.039-0.568,0.339-0.529,0.67c0.039,0.331,0.339,0.568,0.67,0.529c0.065-0.008,0.127-0.026,0.184-0.052l0.452,0.234
						c-0.251,0.554-0.433,1.139-0.539,1.744l0.747,0.132c0.23-1.306,0.85-2.507,1.792-3.473L260.104,461.271z"/>
				</g>
				<g id="XMLID_84_">
					<path d="M265.592,458.969c-0.171,0-0.341,0.006-0.51,0.017l-0.074-0.626c0.188-0.149,0.296-0.389,0.266-0.645
						c-0.046-0.393-0.402-0.674-0.795-0.628c-0.393,0.046-0.674,0.402-0.628,0.795c0.03,0.254,0.189,0.461,0.405,0.564l0.073,0.624
						c-0.714,0.116-1.403,0.332-2.059,0.646l0.327,0.684c0.934-0.447,1.942-0.673,2.995-0.673c0.496,0,0.993,0.053,1.475,0.158
						l0.161-0.741C266.693,459.028,266.142,458.969,265.592,458.969z"/>
				</g>
				<g id="XMLID_83_">
					<path d="M272.194,461.516c0.331-0.04,0.566-0.341,0.525-0.672c-0.041-0.331-0.342-0.566-0.672-0.526
						c-0.309,0.038-0.535,0.304-0.53,0.609l-0.416,0.363c-0.418-0.43-0.89-0.813-1.408-1.139l-0.404,0.641
						c1.134,0.715,2.021,1.726,2.563,2.925l0.691-0.313c-0.251-0.554-0.567-1.072-0.942-1.545l0.402-0.351
						C272.065,461.521,272.129,461.524,272.194,461.516z"/>
				</g>
				<g id="XMLID_82_">
					<path d="M265.044,469.177c-0.386,0.023-0.775,0.035-1.157,0.035c-0.88,0-1.733-0.061-2.478-0.179
						c-0.39-0.062-0.846-0.155-1.27-0.292c1.046,1.861,3.069,3.125,5.388,3.125c2.855,0,5.262-1.916,5.95-4.504
						c-0.682,0.449-1.506,0.825-2.459,1.123C267.839,468.853,266.463,469.092,265.044,469.177z"/>
				</g>
				<g id="XMLID_78_">
					<path d="M265.592,460.485c-3.352,0-6.08,2.666-6.08,5.943c0,0.426,0.046,0.849,0.137,1.261c0.674,0.483,2.706,0.89,5.348,0.731
						c2.879-0.173,5.297-0.957,6.672-2.159c-0.005-0.195-0.021-0.39-0.045-0.582C271.244,462.719,268.65,460.485,265.592,460.485z
						 M263.432,467c-1.02,0-1.85-0.83-1.85-1.85c0-1.02,0.83-1.85,1.85-1.85c1.02,0,1.85,0.83,1.85,1.85
						C265.282,466.17,264.452,467,263.432,467z M268.17,466.092c-0.75,0-1.36-0.61-1.36-1.36s0.61-1.361,1.36-1.361
						s1.36,0.61,1.36,1.361S268.92,466.092,268.17,466.092z"/>
				</g>
			</g>
			<g id="XMLID_75_">
				<path d="M281.595,462.352c-0.295-0.116-0.806-0.309-1.383-0.237c-0.551,0.069-0.844,0.341-0.844,1.007v0.866h2.228v1.717h-2.228
					v5.455h-1.932v-5.455h-1.34v-1.717h1.34v-0.888c0-1.68,0.895-2.783,2.568-2.783c0.642,0,1.157,0.122,1.59,0.308L281.595,462.352
					z"/>
			</g>
			<g id="XMLID_73_">
				<path d="M286.298,465.684c-0.177-0.03-0.358-0.046-0.526-0.046c-0.896,0-1.51,0.548-1.51,1.613v3.908h-1.932v-7.172h1.872v0.785
					c0.451-0.673,1.14-0.977,2.021-0.977c0.414,0,0.848,0.128,1.094,0.337L286.298,465.684z"/>
			</g>
			<g id="XMLID_70_">
				<path d="M293.965,467.562c0,0.222-0.015,0.489-0.037,0.651h-5.085c0.207,1.036,0.933,1.488,1.843,1.488
					c0.622,0,1.295-0.252,1.813-0.688l1.133,1.243c-0.814,0.748-1.851,1.088-3.057,1.088c-2.198,0-3.723-1.495-3.723-3.753
					c0-2.258,1.48-3.797,3.626-3.797C292.544,463.795,293.958,465.327,293.965,467.562z M288.851,466.896h3.175
					c-0.178-0.918-0.733-1.436-1.562-1.436C289.554,465.46,289.021,466.008,288.851,466.896z"/>
			</g>
			<g id="XMLID_67_">
				<path d="M301.618,467.562c0,0.222-0.015,0.489-0.037,0.651h-5.085c0.207,1.036,0.933,1.488,1.843,1.488
					c0.622,0,1.295-0.252,1.813-0.688l1.133,1.243c-0.814,0.748-1.85,1.088-3.057,1.088c-2.198,0-3.723-1.495-3.723-3.753
					c0-2.258,1.48-3.797,3.627-3.797C300.197,463.795,301.611,465.327,301.618,467.562z M296.504,466.896h3.175
					c-0.178-0.918-0.733-1.436-1.562-1.436C297.207,465.46,296.674,466.008,296.504,466.896z"/>
			</g>
			<g id="XMLID_64_">
				<path d="M309.964,467.57c0,2.154-1.495,3.775-3.471,3.775c-0.962,0-1.643-0.378-2.109-0.933v3.708h-1.924v-10.133h1.887v0.792
					c0.466-0.585,1.155-0.984,2.139-0.984C308.469,463.795,309.964,465.416,309.964,467.57z M304.287,467.57
					c0,1.132,0.747,1.976,1.843,1.976c1.14,0,1.85-0.881,1.85-1.976c0-1.095-0.71-1.976-1.85-1.976
					C305.035,465.594,304.287,466.437,304.287,467.57z"/>
			</g>
			<g id="XMLID_61_">
				<path d="M313.068,461.641c0,0.696-0.54,1.229-1.236,1.229c-0.696,0-1.229-0.533-1.229-1.229c0-0.696,0.533-1.243,1.229-1.243
					C312.527,460.398,313.068,460.946,313.068,461.641z M312.809,471.159h-1.932v-7.172h1.932V471.159z"/>
			</g>
			<g id="XMLID_59_">
				<path d="M316.032,466.541l2.702-2.554h2.368l-3.479,3.375l3.501,3.797h-2.376l-2.716-2.901v2.901H314.1v-10.658h1.932V466.541z"
					/>
			</g>
		</g>
		<g>
			<g>
				<path d="M184.412,471.095v-1.055c-0.527,0.718-1.391,1.23-2.387,1.23c-1.846,0-3.149-1.406-3.149-3.706
					c0-2.256,1.289-3.721,3.149-3.721c0.952,0,1.816,0.469,2.387,1.245v-3.765h1.099v9.77H184.412z M184.412,469.176v-3.208
					c-0.395-0.615-1.245-1.143-2.124-1.143c-1.421,0-2.27,1.172-2.27,2.739c0,1.567,0.85,2.724,2.27,2.724
					C183.168,470.289,184.017,469.791,184.412,469.176z"/>
			</g>
			<g>
				<path d="M186.932,467.55c0-2.051,1.465-3.706,3.486-3.706c2.139,0,3.398,1.67,3.398,3.794v0.279h-5.727
					c0.088,1.333,1.025,2.446,2.549,2.446c0.805,0,1.626-0.322,2.182-0.894l0.527,0.718c-0.703,0.703-1.655,1.084-2.812,1.084
					C188.44,471.27,186.932,469.762,186.932,467.55z M190.403,464.752c-1.509,0-2.256,1.274-2.314,2.358h4.644
					C192.718,466.056,192.015,464.752,190.403,464.752z"/>
			</g>
			<g>
				<path d="M194.607,470.157l0.571-0.791c0.469,0.542,1.362,1.011,2.329,1.011c1.084,0,1.67-0.513,1.67-1.216
					c0-1.714-4.38-0.659-4.38-3.281c0-1.098,0.952-2.036,2.636-2.036c1.201,0,2.051,0.454,2.622,1.025l-0.513,0.762
					c-0.424-0.513-1.201-0.894-2.109-0.894c-0.967,0-1.567,0.483-1.567,1.113c0,1.552,4.38,0.527,4.38,3.281
					c0,1.187-0.952,2.138-2.783,2.138C196.306,471.27,195.325,470.919,194.607,470.157z"/>
			</g>
			<g>
				<path d="M201.477,462.277c0-0.41,0.337-0.747,0.732-0.747c0.41,0,0.747,0.337,0.747,0.747c0,0.41-0.337,0.732-0.747,0.732
					C201.814,463.009,201.477,462.687,201.477,462.277z M201.667,471.095v-7.075h1.099v7.075H201.667z"/>
			</g>
			<g>
				<path d="M204.582,472.911l0.556-0.82c0.586,0.703,1.289,0.967,2.3,0.967c1.172,0,2.27-0.571,2.27-2.124v-1.011
					c-0.513,0.718-1.377,1.26-2.373,1.26c-1.845,0-3.149-1.377-3.149-3.662c0-2.27,1.289-3.676,3.149-3.676
					c0.952,0,1.802,0.469,2.373,1.245v-1.069h1.098v6.87c0,2.344-1.641,3.076-3.369,3.076
					C206.237,473.966,205.417,473.731,204.582,472.911z M209.709,469.059v-3.091c-0.381-0.615-1.23-1.143-2.109-1.143
					c-1.421,0-2.27,1.128-2.27,2.695c0,1.553,0.849,2.695,2.27,2.695C208.478,470.216,209.328,469.674,209.709,469.059z"/>
			</g>
			<g>
				<path d="M217.413,471.095v-4.629c0-1.245-0.63-1.641-1.582-1.641c-0.864,0-1.685,0.527-2.095,1.099v5.17h-1.099v-7.075h1.099
					v1.025c0.498-0.586,1.465-1.201,2.519-1.201c1.48,0,2.256,0.747,2.256,2.285v4.966H217.413z"/>
			</g>
			<g>
				<path d="M219.932,467.55c0-2.051,1.465-3.706,3.486-3.706c2.139,0,3.398,1.67,3.398,3.794v0.279h-5.727
					c0.088,1.333,1.025,2.446,2.549,2.446c0.806,0,1.626-0.322,2.183-0.894l0.527,0.718c-0.703,0.703-1.655,1.084-2.812,1.084
					C221.441,471.27,219.932,469.762,219.932,467.55z M223.404,464.752c-1.509,0-2.256,1.274-2.314,2.358h4.643
					C225.718,466.056,225.015,464.752,223.404,464.752z"/>
			</g>
			<g>
				<path d="M233.35,471.095v-1.055c-0.527,0.718-1.391,1.23-2.388,1.23c-1.845,0-3.149-1.406-3.149-3.706
					c0-2.256,1.289-3.721,3.149-3.721c0.952,0,1.817,0.469,2.388,1.245v-3.765h1.098v9.77H233.35z M233.35,469.176v-3.208
					c-0.396-0.615-1.245-1.143-2.124-1.143c-1.421,0-2.27,1.172-2.27,2.739c0,1.567,0.849,2.724,2.27,2.724
					C232.105,470.289,232.954,469.791,233.35,469.176z"/>
			</g>
			<g>
				<path d="M239.692,471.095v-9.77h1.099v3.765c0.572-0.776,1.421-1.245,2.388-1.245c1.845,0,3.149,1.465,3.149,3.721
					c0,2.299-1.304,3.706-3.149,3.706c-0.996,0-1.86-0.513-2.388-1.23v1.055H239.692z M242.9,470.289
					c1.436,0,2.285-1.157,2.285-2.724c0-1.568-0.85-2.739-2.285-2.739c-0.864,0-1.728,0.527-2.109,1.143v3.208
					C241.171,469.791,242.036,470.289,242.9,470.289z"/>
			</g>
			<g>
				<path d="M247.528,472.867c0.161,0.073,0.425,0.117,0.601,0.117c0.483,0,0.805-0.161,1.055-0.747l0.469-1.069l-2.959-7.148h1.186
					l2.358,5.8l2.344-5.8h1.201l-3.545,8.51c-0.425,1.025-1.143,1.421-2.08,1.435c-0.234,0-0.601-0.044-0.805-0.103L247.528,472.867
					z"/>
			</g>
		</g>
	</g>
</g>
</svg>
