<svg id="Capa_1" data-name="Capa 1" xmlns="http://www.w3.org/2000/svg" viewBox="0 0 314.28 225.21"><defs><style>.cls-1{fill:#ff489b;}</style></defs><title>logo</title><path class="cls-1" d="M46.86,67.63c-10.59-.45-21.26-5.84-25.28-16.16a22.29,22.29,0,0,1,5.08-23.84c9.14-9.33,24.18-10,35.78-5.4A31.82,31.82,0,0,1,77.39,33.86c5.09,7.73,6.14,18.38,7.18,27.35,2.6,22.46.75,45.17-1,67.62-.12,1.61,0,6.67-2.21,7.46-1.17.42-.42.17-.28.21-.91-.25-1.8-3.23-2.12-4.17-1.8-5.33-2.42-11.1-2.89-16.68C74.94,102,75.74,88.77,79.52,75.5c5.6-19.69,18.8-39.85,41.17-41.42,12.59-.88,21.8,6.32,23.74,18.87,1.51,9.76-1,19.94-2.54,29.55-2.57,15.6-7.28,36.59,2.16,50.84a21,21,0,0,0,22.81,8.74c9.42-2.56,15.44-12,14.75-21.58-.35-4.79-7.85-4.82-7.5,0,.9,12.37-14.33,20.47-22.85,10-5.85-7.17-5.31-18.47-4.66-27.12.71-9.49,2.56-18.87,4.06-28.26,1.73-10.81,3.15-22.27-1.54-32.58C139,20.36,110.45,24.19,94.24,37.07,76.33,51.32,69,77.13,68,99.14c-.52,11.27.15,24,3.58,34.81,1.37,4.31,3.83,9.76,9.06,10,9.25.47,10.1-11.35,10.6-17.78,2-26,3.89-52.54-1.26-78.33-1.74-8.69-4.17-16.71-10.48-23.19a42.56,42.56,0,0,0-19-11C44.81,9.3,26.06,13.34,17,27.9a29.64,29.64,0,0,0-.31,30.61c6.22,10.68,18.17,16.11,30.17,16.62,4.83.2,4.82-7.3,0-7.5Z" transform="translate(-10.38 -12.02)"/><path class="cls-1" d="M249.43,40C238,23.91,214.11,27.67,200.37,38.57,183.87,51.65,176.68,73.45,177.28,94c.61,21.08,10.77,44.27,34.07,47.41,24.45,3.3,34.72-20.92,41.56-39.77,2.53-7,11.3-37.63-3.43-37.87-8.06-.13-9.78,10.58-9.61,16.64.14,5.05,1.67,9.93,3.1,14.73,1.85,6.22,3.4,12.53,5.1,18.79,6.45,23.76,13.62,48.31,12.51,73.19-.5,11.21-2.73,22.89-10,31.8-7,8.6-17.86,12.94-28.73,9.64-11.91-3.61-20.78-14.74-19.72-27.4,1.12-13.4,11.32-23.9,23.5-28.41,23-8.51,54.28-3,69.62-26.41,2.65-4.05-3.84-7.81-6.48-3.79-12.47,19.07-41,16.06-60.27,21.42-18.2,5.06-34.27,19.81-34,39.93.28,18.18,16.65,33.09,34.58,33.33,19.67.26,33.35-17.16,37.1-35,4.48-21.3.73-43.55-4.18-64.43-2.53-10.76-5.54-21.4-8.4-32.08-2.5-9.34-7.66-20.2-6-30,.21-1.19.47-3.6,1.58-4.37.59-.41-.74-.58-.23-.14a4.07,4.07,0,0,1,.41,1.12,52.44,52.44,0,0,1,.35,9.73c-.64,8.53-3.58,16.4-6.7,24.31-3.69,9.34-7.75,19.77-17,25-9.43,5.34-21,2.41-28.82-4.52-17.22-15.32-15.19-47.2-5.49-66,5-9.78,13.19-18.74,23.84-22.33,8.94-3,21.28-3.28,27.35,5.24,2.78,3.9,9.28.16,6.48-3.79Z" transform="translate(-10.38 -12.02)"/><path class="cls-1" d="M306.42,109.34c-2.83-2.44-6.56-3.52-9.71-.87s-3.34,7.54-3.34,11.22c0,8.85,3.3,17.13,13.48,14.06,6.49-2,18.69-8.06,17.74-16.35-1.06-9.29-13.1-9.71-19.91-7.58-4.59,1.43-2.63,8.67,2,7.23,1.84-.57,7.67-2,9.34-.13,2.59,2.88-4.78,6.75-6.49,7.67-2.64,1.41-6.59,3.81-8.16.38-.65-1.43-.5-3.75-.5-5.27,0-.93.8-4.56.24-5,3.64,3.14,9-2.14,5.3-5.3Z" transform="translate(-10.38 -12.02)"/><path class="cls-1" d="M14,167q86-2.52,172-1c4.83.08,4.83-7.42,0-7.5q-86-1.48-172,1c-4.82.14-4.84,7.64,0,7.5Z" transform="translate(-10.38 -12.02)"/></svg>