<svg xmlns="http://www.w3.org/2000/svg" viewBox="0 0 310 250"><defs><style>.cls-1{fill:#ff489b;}</style></defs><title>logorosa</title><g id="Capa_2" data-name="Capa 2"><path class="cls-1" d="M43.37,65.57c-10.74-.44-21.54-5.75-26.06-16a23.27,23.27,0,0,1,4.57-25.48c9.42-10,25-10.84,37.28-6.22A33.84,33.84,0,0,1,74.69,29.37c5.28,7.33,6.48,17.4,7.68,26.1,3.36,24.28,1.33,49-.55,73.31-.2,2.65.08,6.85-2.37,8.58-.43.31-.72.17-.14.29-.81-.17-1.84-2.94-2.24-4.06-2-5.67-2.65-11.94-3.15-17.91A115.85,115.85,0,0,1,77.1,75.29c5.55-20.62,18.69-42,41.88-44.68,12.13-1.38,22.3,3.89,25.65,16.06,2.88,10.47.16,21.81-1.54,32.25-2.72,16.77-7.69,37.68.84,53.56a22,22,0,0,0,23.5,11.23c10.56-2.09,17.6-12.35,16.83-22.88-.37-5-8.21-5-7.84,0,1,13.69-16.24,21.45-24.57,9.59-5.56-7.92-4.87-19.44-4.11-28.6.84-10,2.83-19.86,4.37-29.77,1.7-11,2.89-22.48-1.9-32.87-10.74-23.31-40.84-18.9-57.7-5.27C74.14,48.78,67,75.06,65.57,97.71c-.73,11.81.11,25.09,3.46,36.45,1.38,4.68,3.91,10.87,9.6,11.23,10,.65,10.72-12.46,11.24-19.27,2.09-27.1,4-54.73-1.44-81.58C86.59,35.47,84,27.15,77.34,20.43A44.6,44.6,0,0,0,57.85,9.22c-16.43-4.66-36-.53-45.56,14.56a31,31,0,0,0-.35,32.46c6.55,11,19,16.65,31.42,17.17,5,.21,5-7.64,0-7.84Z"/><path class="cls-1" d="M255.21,36.67c-11.92-16.8-36.86-12.9-51.2-1.59-17.35,13.69-24.9,36.55-24.25,58.11.68,22.63,12.15,47.68,37.54,49.75S253,118.29,259.71,98.69c2.54-7.45,10.09-37-4.49-37.17-8.71-.09-10.37,11.85-10,18.29.35,5.73,2.26,11.18,3.84,16.65,1.76,6.11,3.28,12.29,4.94,18.43,6.74,24.8,14.16,50.48,12.8,76.44-.61,11.71-3.11,23.86-10.91,33s-19.83,13.24-31.38,8.9c-12-4.5-20.29-16.17-18.7-29.13,1.72-14,12.56-24.47,25.38-28.94,23.89-8.34,56.12-3.11,71.9-27.3,2.77-4.24-4-8.17-6.77-4-12.92,19.8-42.44,16.81-62.49,22.25-19.3,5.24-36.52,20.73-36,42.12.43,19.39,18.61,35.53,37.88,34.61,20.46-1,33.77-19.24,37.35-37.92,4.43-23.09,0-47.05-5.51-69.56-2.73-11.17-5.89-22.22-8.82-33.33-2.42-9.18-7.38-19.5-5.12-29.15.2-.84.61-3.26,1.63-3.58-.49.15-.94-.89-.27.33a6.41,6.41,0,0,1,.41,1.53c.78,3.19.42,6.89.15,10.13-.74,8.81-3.87,17-7.11,25.15-3.86,9.75-8.15,20.48-17.82,25.88-9.83,5.49-22,2.31-30.07-5-18.12-16.41-15.74-50.16-5.06-70,5.4-10,14-19,25.07-22.53,9.21-2.91,21.73-3,27.92,5.71,2.9,4.08,9.7.17,6.77-4Z"/><path class="cls-1" d="M9,169.46q89.91-2.63,179.87-1.08c5,.09,5-7.76,0-7.84Q98.94,159,9,161.62c-5,.15-5.06,8,0,7.84Z"/></g></svg>